<?xml version="1.0" encoding="utf-8"?>
<!-- Generator: Adobe Illustrator 13.0.0, SVG Export Plug-In  -->
<!DOCTYPE svg PUBLIC "-//W3C//DTD SVG 1.1//EN" "http://www.w3.org/Graphics/SVG/1.1/DTD/svg11.dtd" [
	<!ENTITY ns_flows "http://ns.adobe.com/Flows/1.0/">
]>
<svg version="1.1"
	 xmlns="http://www.w3.org/2000/svg" xmlns:xlink="http://www.w3.org/1999/xlink" xmlns:a="http://ns.adobe.com/AdobeSVGViewerExtensions/3.0/"
	 x="0px" y="0px" width="576px" height="576px" viewBox="-0.943 -0.943 576 576" enable-background="new -0.943 -0.943 576 576"
	 xml:space="preserve">
<defs>
</defs>
<circle fill="#FFFFFF" stroke="#000000" stroke-width="0.1764" stroke-linecap="round" stroke-linejoin="round" cx="287.057" cy="287.057" r="286.969"/>
<circle fill="#EA190E" stroke="#FF0000" stroke-width="0.1764" stroke-linecap="round" stroke-linejoin="round" cx="287.057" cy="287.057" r="273.982"/>
<path fill="#FFFFFF" stroke="#FF0000" stroke-width="0.1764" stroke-linecap="round" stroke-linejoin="round" d="M444.894,397.147
	c56.203-80.579,42.686-190.557-31.359-255.127c-74.045-64.569-184.839-62.997-257.021,3.649l283.008,246.793L444.894,397.147z"/>
<path fill="#FFFFFF" stroke="#FF0000" stroke-width="0.1764" stroke-linecap="round" stroke-linejoin="round" d="M417.433,428.6
	c-72.261,66.561-183.057,68.002-257.025,3.345c-73.968-64.657-87.356-174.651-31.057-255.164l282.715,247.128L417.433,428.6z"/>
<polygon stroke="#000000" stroke-width="0.1764" stroke-linecap="round" stroke-linejoin="round" points="225.514,260.801 
	189.028,228.952 165.96,228.952 165.96,215.487 128.67,246.265 166.257,281.375 166.257,260.801 "/>
<path stroke="#000000" stroke-width="0.1764" stroke-linecap="round" stroke-linejoin="round" d="M252.713,228.952l36.524,31.85
	c14.815,0.055,27.344,10.98,29.414,25.651l36.766,32.06v-31.343c0-17.066-7.413-33.291-20.313-44.463
	c-12.9-11.172-30.018-16.191-46.909-13.754H252.713z"/>
<polygon stroke="#000000" stroke-width="0.1764" stroke-linecap="round" stroke-linejoin="round" points="355.417,437.926 
	355.417,373.072 318.949,341.236 318.956,437.926 "/>
</svg>
