<?xml version="1.0" encoding="UTF-8" standalone="no"?>
<!-- Generator: Adobe Illustrator 16.0.2, SVG Export Plug-In . SVG Version: 6.00 Build 0)  -->

<svg
   xmlns:dc="http://purl.org/dc/elements/1.1/"
   xmlns:cc="http://creativecommons.org/ns#"
   xmlns:rdf="http://www.w3.org/1999/02/22-rdf-syntax-ns#"
   xmlns:svg="http://www.w3.org/2000/svg"
   xmlns="http://www.w3.org/2000/svg"
   xmlns:sodipodi="http://sodipodi.sourceforge.net/DTD/sodipodi-0.dtd"
   xmlns:inkscape="http://www.inkscape.org/namespaces/inkscape"
   version="1.1"
   id="Ebene_1"
   x="0px"
   y="0px"
   width="574.125"
   height="574.09375"
   viewBox="0 0 574.125 574.09375"
   xml:space="preserve"
   inkscape:version="0.48.4 r9939"
   sodipodi:docname="AJAX1.svg"><metadata
   id="metadata43"><rdf:RDF><cc:Work
       rdf:about=""><dc:format>image/svg+xml</dc:format><dc:type
         rdf:resource="http://purl.org/dc/dcmitype/StillImage" /></cc:Work></rdf:RDF></metadata><defs
   id="defs41" /><sodipodi:namedview
   pagecolor="#ffffff"
   bordercolor="#666666"
   borderopacity="1"
   objecttolerance="10"
   gridtolerance="10"
   guidetolerance="10"
   inkscape:pageopacity="0"
   inkscape:pageshadow="2"
   inkscape:window-width="1280"
   inkscape:window-height="1004"
   id="namedview39"
   showgrid="false"
   fit-margin-top="0"
   fit-margin-left="0"
   fit-margin-right="0"
   fit-margin-bottom="0"
   inkscape:zoom="1.1254964"
   inkscape:cx="276.0625"
   inkscape:cy="329.53125"
   inkscape:window-x="-8"
   inkscape:window-y="-8"
   inkscape:window-maximized="1"
   inkscape:current-layer="Ebene_1" />
<circle
   style="stroke:#000000;stroke-width:0.17640001;stroke-linecap:round;stroke-linejoin:round"
   cx="310"
   cy="372.979"
   r="286.96799"
   id="circle3"
   sodipodi:cx="310"
   sodipodi:cy="372.979"
   sodipodi:rx="286.96799"
   sodipodi:ry="286.96799"
   transform="translate(-22.9375,-85.9375)" />
<path
   style="fill:#ffffff;stroke:#000000;stroke-width:0.17640001;stroke-linecap:round;stroke-linejoin:round"
   d="m 130.6085,508.4585 c 108.646,75.309 255.604,62.117 349.104,-31.332 93.5,-93.45 106.767,-240.404 31.514,-349.089 l -44.025,44.096 h -139.44 l 114.772,-112.929 c -108.471,-75.44 -255.367,-62.538 -349.026,30.657 -93.656,93.194 -107.29,240.024 -32.39,348.869 l 44.036,-43.824 h 139.556 l -114.101,113.552 z"
   id="path5"
   inkscape:connector-curvature="0" />
<polygon
   style="fill:#ffffff"
   points="361.346,206.018 294.178,261.439 341.669,313.832 408.838,258.412 "
   id="polygon7"
   transform="translate(-22.9375,-85.9375)" />
<polygon
   style="stroke:#000000;stroke-width:0.17640001;stroke-linecap:round;stroke-linejoin:round"
   points="114.46,494.587 200.224,410.518 267.911,480.591 182.147,564.66 "
   id="polygon9"
   transform="translate(-22.9375,-85.9375)" />
<rect
   x="80.490501"
   y="398.48849"
   style="fill:#ffffff"
   width="10.069"
   height="9.5959997"
   id="rect11" />
<polygon
   style="stroke:#000000;stroke-width:0.17640001;stroke-linecap:round;stroke-linejoin:round"
   points="345.46,263.587 431.225,179.518 498.911,249.591 413.146,333.66 "
   id="polygon13"
   transform="translate(-22.9375,-85.9375)" />
<g
   id="g15"
   transform="translate(-22.9375,-85.9375)">
	<rect
   x="114.853"
   y="302.15601"
   style="fill:none"
   width="463"
   height="384"
   id="rect17" />
	<path
   style="fill:#ffffff"
   d="m 124.082,432.967 c -0.293,-5.468 -0.439,-10.84 -0.439,-16.113 0,-2.637 0.048,-5.273 0.146,-7.91 0.293,-10.35 1.122,-20.409 2.49,-30.176 v -1.025 l 0.586,-1.318 1.025,-10.107 0.732,-1.465 1.465,-8.203 0.586,-0.879 c 1.465,-7.031 4.637,-14.941 9.521,-23.73 l 4.248,-6.445 8.203,-8.35 c 8.69,-7.031 19.97,-12.06 33.838,-15.088 4.395,-0.78 8.936,-1.172 13.623,-1.172 h 1.172 c 7.324,0.197 14.989,1.417 22.998,3.662 3.319,0.392 8.643,2.589 15.967,6.592 7.519,4.688 14.355,11.085 20.508,19.189 l 4.688,7.178 3.809,8.057 1.611,5.859 0.439,0.439 v 1.465 c 0.975,2.051 1.561,3.662 1.758,4.834 l 0.586,0.732 2.49,13.037 0.439,0.293 -0.293,1.904 0.586,1.172 1.465,15.674 0.586,1.465 -0.439,0.146 1.025,9.229 -0.293,0.293 c 0.389,0.978 0.389,1.563 0,1.758 l 0.439,1.465 -0.293,0.439 0.732,9.961 -0.293,0.293 0.439,4.248 -0.146,0.293 v 5.859 c -0.099,3.614 -0.392,7.961 -0.879,13.037 l -0.732,5.42 0.293,0.293 -0.732,1.465 c -0.293,3.614 -1.124,7.91 -2.49,12.891 l -0.879,2.783 -0.146,1.611 -3.809,10.84 -0.732,0.586 c 0,0.978 -1.271,3.955 -3.809,8.936 l -7.031,10.107 c -7.716,8.888 -16.26,15.381 -25.635,19.482 -6.152,2.442 -12.355,4.051 -18.604,4.834 l -11.279,0.732 -2.637,-0.146 c -22.266,-0.586 -40.235,-7.812 -53.906,-21.68 -6.738,-7.519 -11.817,-16.26 -15.234,-26.221 -3.907,-10.155 -6.299,-20.849 -7.178,-32.08 l -0.585,-6.445 z m 72.949,44.238 c 6.054,0.392 9.814,0.293 11.279,-0.293 l 0.146,0.293 8.057,-1.758 c 6.445,-2.146 11.375,-6.786 14.795,-13.916 2.637,-7.127 4.589,-15.623 5.859,-25.488 l 0.732,-33.105 -0.439,-15.527 -1.465,-11.572 -0.586,-0.586 -1.904,-8.203 -0.586,-0.293 c -1.465,-5.859 -4.248,-11.279 -8.35,-16.26 -3.126,-2.538 -5.617,-4.197 -7.471,-4.98 l -8.496,-2.051 -8.936,-0.439 c -4.005,-0.096 -8.448,0.732 -13.33,2.49 -4.493,2.149 -8.253,6.006 -11.279,11.572 -2.149,5.178 -4.102,11.671 -5.859,19.482 l 0.293,0.879 c -0.586,0.49 -0.929,2.102 -1.025,4.834 -1.369,11.426 -1.515,28.176 -0.439,50.244 l 2.344,15.967 3.076,11.279 c 2.245,5.859 5.321,10.107 9.229,12.744 3.515,2.248 8.299,3.808 14.355,4.687 z"
   id="path19"
   inkscape:connector-curvature="0" />
</g>
<rect
   x="142.5625"
   y="254.5625"
   style="fill:#ffffff"
   width="130"
   height="140.5"
   id="rect21" />
<g
   id="g23"
   transform="translate(-22.9375,-85.9375)">
	<rect
   x="328.5"
   y="230"
   style="fill:none"
   width="463"
   height="384"
   id="rect25" />
	<path
   style="fill:#ffffff"
   d="m 337.729,360.811 c -0.293,-5.468 -0.439,-10.84 -0.439,-16.113 0,-2.637 0.048,-5.273 0.146,-7.91 0.293,-10.35 1.121,-20.409 2.49,-30.176 v -1.025 l 0.586,-1.318 1.025,-10.107 0.732,-1.465 1.465,-8.203 0.586,-0.879 c 1.465,-7.031 4.637,-14.941 9.521,-23.73 l 4.248,-6.445 8.203,-8.35 c 8.69,-7.031 19.97,-12.06 33.838,-15.088 4.395,-0.78 8.936,-1.172 13.623,-1.172 h 1.172 c 7.324,0.197 14.989,1.417 22.998,3.662 3.318,0.392 8.643,2.589 15.967,6.592 7.519,4.688 14.355,11.085 20.508,19.189 l 4.688,7.178 3.809,8.057 1.611,5.859 0.439,0.439 v 1.465 c 0.975,2.051 1.561,3.662 1.758,4.834 l 0.586,0.732 2.49,13.037 0.439,0.293 -0.293,1.904 0.586,1.172 1.465,15.674 0.586,1.465 -0.439,0.146 1.025,9.229 -0.293,0.293 c 0.389,0.978 0.389,1.563 0,1.758 l 0.439,1.465 -0.293,0.439 0.732,9.961 -0.293,0.293 0.439,4.248 -0.146,0.293 v 5.859 c -0.099,3.614 -0.392,7.961 -0.879,13.037 l -0.732,5.42 0.293,0.293 -0.732,1.465 c -0.293,3.614 -1.124,7.91 -2.49,12.891 l -0.879,2.783 -0.146,1.611 -3.809,10.84 -0.732,0.586 c 0,0.978 -1.271,3.955 -3.809,8.936 l -7.031,10.107 c -7.716,8.888 -16.26,15.381 -25.635,19.482 -6.152,2.442 -12.355,4.051 -18.604,4.834 l -11.279,0.732 -2.637,-0.146 c -22.266,-0.586 -40.235,-7.812 -53.906,-21.68 -6.738,-7.519 -11.817,-16.26 -15.234,-26.221 -3.907,-10.155 -6.299,-20.849 -7.178,-32.08 l -0.585,-6.445 z m 72.949,44.238 c 6.054,0.392 9.814,0.293 11.279,-0.293 l 0.146,0.293 8.057,-1.758 c 6.445,-2.146 11.375,-6.786 14.795,-13.916 2.637,-7.127 4.589,-15.623 5.859,-25.488 l 0.732,-33.105 -0.439,-15.527 -1.465,-11.572 -0.586,-0.586 -1.904,-8.203 -0.586,-0.293 c -1.465,-5.859 -4.248,-11.279 -8.35,-16.26 -3.127,-2.538 -5.617,-4.198 -7.471,-4.98 l -8.496,-2.051 -8.936,-0.439 c -4.006,-0.096 -8.448,0.732 -13.33,2.49 -4.493,2.149 -8.254,6.006 -11.279,11.572 -2.149,5.177 -4.102,11.671 -5.859,19.482 l 0.293,0.879 c -0.586,0.49 -0.93,2.101 -1.025,4.834 -1.369,11.426 -1.516,28.176 -0.439,50.244 l 2.344,15.967 3.076,11.279 c 2.245,5.859 5.321,10.107 9.229,12.744 3.515,2.248 8.298,3.808 14.355,4.687 z"
   id="path27"
   inkscape:connector-curvature="0" />
</g>
<rect
   x="304.5625"
   y="158.0625"
   style="fill:#ffffff"
   width="127"
   height="95"
   id="rect29" />
<g
   id="g31"
   transform="translate(-22.9375,-85.9375)">
	<rect
   x="106"
   y="253"
   style="fill:none"
   width="520"
   height="289"
   id="rect33" />
	<path
   d="m 278.5,253.169 -0.168,47.336 h -83.218 l -5.728,42.114 c 7.859,-2.245 16.172,-3.201 24.932,-2.863 8.196,-0.225 16.564,0.674 25.1,2.695 12.353,3.932 23.357,10.839 33.018,20.72 13.363,14.601 20.944,30.772 22.742,48.516 0.11,2.585 0.168,5.112 0.168,7.581 0,10.781 -1.406,20.104 -4.211,27.963 -5.167,12.02 -12.242,22.801 -21.226,32.344 -14.824,13.928 -32.907,20.889 -54.243,20.889 h -3.369 l -15.498,-1.01 c -16.172,-1.795 -30.212,-7.468 -42.114,-17.015 -15.388,-14.15 -24.876,-28.692 -28.469,-43.63 l 48.516,-12.298 c 1.458,6.628 5.277,12.579 11.455,17.856 9.32,6.852 22.46,8.254 39.419,4.211 14.037,-5.727 20.607,-15.721 19.709,-29.984 0.337,-12.914 -5.504,-22.068 -17.52,-27.459 -8.313,-2.469 -17.688,-3.143 -28.132,-2.021 -7.976,1.685 -15.106,4.775 -21.394,9.266 L 136.323,365.53 148.789,253.169 H 278.5 z"
   id="path35"
   inkscape:connector-curvature="0" />
	<path
   d="m 320.752,403.432 c -0.338,-6.287 -0.506,-12.465 -0.506,-18.529 0,-3.033 0.056,-6.064 0.168,-9.098 0.338,-11.902 1.29,-23.471 2.864,-34.701 v -1.18 l 0.674,-1.516 1.179,-11.624 0.843,-1.685 1.685,-9.434 0.674,-1.011 c 1.685,-8.086 5.333,-17.183 10.949,-27.29 l 4.886,-7.412 9.434,-9.602 c 9.994,-8.086 22.966,-13.869 38.913,-17.351 5.055,-0.897 10.276,-1.348 15.667,-1.348 h 1.348 c 8.423,0.227 17.238,1.629 26.448,4.211 3.816,0.45 9.938,2.977 18.361,7.581 8.646,5.391 16.509,12.748 23.584,22.068 l 5.391,8.254 4.38,9.265 1.853,6.738 0.506,0.505 v 1.685 c 1.121,2.358 1.795,4.211 2.021,5.559 l 0.674,0.842 2.863,14.992 0.506,0.338 -0.337,2.189 0.674,1.348 1.685,18.025 0.674,1.684 -0.506,0.169 1.18,10.612 -0.337,0.338 c 0.447,1.123 0.447,1.797 0,2.021 l 0.505,1.684 -0.336,0.506 0.842,11.455 -0.337,0.337 0.505,4.886 -0.168,0.336 v 6.738 c -0.113,4.156 -0.45,9.155 -1.011,14.993 l -0.843,6.233 0.338,0.336 -0.843,1.686 c -0.337,4.156 -1.292,9.096 -2.864,14.824 l -1.01,3.2 -0.169,1.853 -4.38,12.467 -0.842,0.674 c 0,1.123 -1.461,4.548 -4.381,10.275 l -8.086,11.623 c -8.872,10.221 -18.698,17.688 -29.479,22.405 -7.075,2.809 -14.208,4.659 -21.394,5.56 l -12.972,0.842 -3.032,-0.168 c -25.605,-0.674 -46.271,-8.984 -61.992,-24.932 -7.749,-8.646 -13.59,-18.699 -17.52,-30.154 -4.493,-11.679 -7.244,-23.977 -8.254,-36.893 l -0.675,-7.409 z m 83.891,50.875 c 6.963,0.449 11.287,0.336 12.972,-0.338 l 0.169,0.338 9.265,-2.021 c 7.412,-2.469 13.082,-7.805 17.015,-16.004 3.031,-8.196 5.277,-17.967 6.738,-29.312 l 0.842,-38.071 -0.506,-17.856 -1.684,-13.308 -0.674,-0.674 -2.19,-9.434 -0.674,-0.337 c -1.685,-6.738 -4.886,-12.971 -9.603,-18.699 -3.595,-2.919 -6.459,-4.827 -8.591,-5.728 L 417.951,300.505 407.676,300 c -4.606,-0.11 -9.716,0.842 -15.33,2.864 -5.167,2.472 -9.491,6.907 -12.971,13.308 -2.472,5.954 -4.717,13.421 -6.738,22.405 l 0.336,1.011 c -0.674,0.563 -1.068,2.417 -1.179,5.56 -1.574,13.139 -1.742,32.401 -0.505,57.78 l 2.695,18.362 3.537,12.971 c 2.582,6.738 6.12,11.623 10.613,14.656 4.044,2.583 9.545,4.378 16.509,5.39 z"
   id="path37"
   inkscape:connector-curvature="0" />
</g>
</svg>