<?xml version="1.0" encoding="UTF-8" standalone="no"?>
<!-- Created with Inkscape (http://www.inkscape.org/) -->

<svg
   xmlns:dc="http://purl.org/dc/elements/1.1/"
   xmlns:cc="http://creativecommons.org/ns#"
   xmlns:rdf="http://www.w3.org/1999/02/22-rdf-syntax-ns#"
   xmlns:svg="http://www.w3.org/2000/svg"
   xmlns="http://www.w3.org/2000/svg"
   version="1.1"
   width="576"
   height="576"
   viewBox="0 0 576 576"
   id="Ebene_1"
   xml:space="preserve"><metadata
   id="metadata39"><rdf:RDF><cc:Work
       rdf:about=""><dc:format>image/svg+xml</dc:format><dc:type
         rdf:resource="http://purl.org/dc/dcmitype/StillImage" /><dc:title></dc:title></cc:Work></rdf:RDF></metadata><defs
   id="defs37">
	
	
	
	

	
	
	
	
	
	
</defs>
<circle
   cx="287.05701"
   cy="287.05701"
   r="286.96899"
   id="circle3"
   style="fill:#ffffff;stroke:#000000;stroke-width:0.17640001;stroke-linecap:round;stroke-linejoin:round" />
<circle
   cx="287.05701"
   cy="287.05701"
   r="276.22699"
   id="circle5"
   style="fill:#ea190e;stroke:#ff0000;stroke-width:0.17640001;stroke-linecap:round;stroke-linejoin:round" />
<circle
   cx="287.05701"
   cy="287.05701"
   r="192.438"
   id="circle7"
   style="fill:#ffffff;stroke:#ff0000;stroke-width:0.17640001;stroke-linecap:round;stroke-linejoin:round" />
<path
   d="m 418.3,264.0371 -262.35,0 c -12.421,0 -22.841,9.371 -24.151,21.722 -1.313,12.351 6.906,23.702 19.049,26.311 l 269.719,0 c 8.871,0 17.022,-4.88 21.214,-12.696 4.191,-7.818 3.743,-17.308 -1.166,-24.695 -4.91,-7.388 -13.485,-11.477 -22.315,-10.642"
   id="path9"
   style="stroke:#000000;stroke-width:0.17640001;stroke-linecap:round;stroke-linejoin:round" />
<path
   d="m 175.37248,187.54495 c 3.67199,0.4056 6.78839,1.77479 9.35038,4.10999 2.56199,2.33519 4.41719,5.09998 5.56438,8.29197 0.5352,1.4064 0.93,3.25199 1.1856,5.54039 v 16.08355 c -0.3816,5.43239 -2.21159,9.81718 -5.48758,13.15317 -3.276,3.33599 -7.25998,5.11078 -11.95077,5.32558 h -22.18074 l 0.0384,-52.50465 h 23.48033 z m -12.54476,42.17628 h 8.94957 c 1.8096,-0.2616 3.3528,-0.888 4.62719,-1.87679 1.2744,-0.9888 2.358,-2.7216 3.25079,-5.19959 0.4836,-1.5252 0.6252,-7.07638 0.4212,-16.65595 -1.1988,-4.95599 -3.96479,-7.80358 -8.29918,-8.54278 h -8.94957 v 32.27511 z"
   id="path13" /><path
   d="m 221.86796,187.08055 c 6.17038,0.882 10.73397,4.28879 13.69196,10.22277 2.52479,4.38479 3.78599,9.77037 3.78599,16.15556 v 0.64319 c 0,7.98238 -2.0784,14.77436 -6.23399,20.37355 -2.95799,3.76559 -7.13878,5.87398 -12.54356,6.32638 -0.5616,0.048 -1.1088,0.072 -1.6452,0.072 -5.60878,0 -10.31277,-2.21639 -14.11196,-6.64798 -3.92639,-5.90879 -5.91598,-11.97357 -5.96638,-18.19315 -0.0252,-0.5244 -0.0384,-1.0488 -0.0384,-1.5732 0,-8.41077 2.00159,-15.36955 6.00478,-20.87394 2.6772,-3.00239 5.46839,-4.91998 8.37478,-5.75398 2.01359,-0.5952 4.02839,-0.894 6.04198,-0.894 0.894,0 1.7736,0.048 2.64,0.1428 z m -2.9448,44.64228 c 2.958,-0.1428 5.45519,-2.0376 7.49638,-5.68319 1.4784,-2.42999 2.4096,-6.00478 2.79239,-10.72317 0.0756,-6.00478 -1.05839,-10.92477 -3.40319,-14.76116 -1.91279,-2.66879 -4.02838,-4.15799 -6.34918,-4.46759 -3.05999,0.1428 -5.60878,2.0136 -7.64878,5.61119 -1.45319,2.52599 -2.39759,6.14758 -2.82959,10.86597 -0.0516,6.00478 1.1088,10.91397 3.47999,14.72516 1.8852,2.66879 4.04039,4.14599 6.46198,4.43279 z"
   id="path15" /><path
   d="m 258.87985,187.79575 v 35.4563 c 0.4836,4.52759 3.21239,7.05358 8.18398,7.57678 4.89599,-0.5004 7.64878,-2.99039 8.26078,-7.46998 v -35.5631 h 10.82397 v 38.20789 c -0.9444,4.67039 -3.30239,8.30398 -7.07518,10.90077 -3.36599,2.21639 -6.80758,3.38279 -10.32598,3.50279 -0.56159,0.048 -1.10879,0.072 -1.64519,0.072 -5.22599,0 -9.54837,-1.41719 -12.96476,-4.25279 -3.90119,-3.52559 -5.96639,-7.12438 -6.19559,-10.79397 v -37.63669 h 10.93797 z"
   id="path17" /><path
   d="m 321.13368,187.65175 14.45636,52.36185 h -10.97517 l -2.40959,-8.90037 h -15.49076 l -2.44679,8.90037 h -11.09037 l 14.30276,-52.36185 h 13.65356 z m -12.31557,33.4907 h 11.05197 l -5.35318,-20.44434 -5.69879,20.44434 z"
   id="path19" /><path
   d="m 356.38518,187.65175 14.07476,27.95032 v -27.95032 h 10.40157 l 0.0384,52.46985 h -10.21077 l -17.09515,-33.06111 -0.0384,33.09711 h -10.51797 v -52.50465 h 13.34756 z"
   id="path21" /><path
   d="m 423.1498,187.75975 v 9.57837 h -23.17554 v 11.43717 h 16.97995 v 9.68637 h -16.97995 v 11.97357 h 24.17033 v 9.68637 h -34.9559 l 0.0396,-52.36185 h 33.92151 z"
   id="path23" />
<path
   d="m 226.8708,334.7956 -0.0384,10.1148 -24.0936,32.3832 h 24.7824 v 9.828 h -37.8996 v -10.5084 l 23.52,-31.704 h -22.3344 v -10.1148 h 36.0636 z"
   id="path27" /><path
   d="m 268.2992,334.0804 c 6.1704,0.882 10.734,4.2888 13.692,10.2228 2.5248,4.3848 3.786,9.7704 3.786,16.1556 v 0.6432 c 0,7.9824 -2.0784,14.7744 -6.234,20.3736 -2.958,3.7656 -7.1388,5.874 -12.5436,6.3252 -0.5616,0.048 -1.1088,0.0732 -1.6452,0.0732 -5.6088,0 -10.3128,-2.2176 -14.112,-6.6492 -3.9264,-5.9088 -5.916,-11.9736 -5.9664,-18.192 -0.0252,-0.5244 -0.0384,-1.0476 -0.0384,-1.5732 0,-8.412 2.0016,-15.3696 6.0048,-20.874 2.6772,-3.0024 5.4684,-4.92 8.3748,-5.754 2.0136,-0.5952 4.0284,-0.894 6.042,-0.894 0.894,0 1.7736,0.048 2.64,0.1428 z m -2.9448,44.6424 c 2.958,-0.1428 5.4552,-2.0376 7.4964,-5.6832 1.4784,-2.43 2.4096,-6.0048 2.7924,-10.7232 0.0756,-6.0048 -1.0584,-10.9248 -3.4032,-14.7612 -1.9128,-2.67 -4.0284,-4.158 -6.3492,-4.4688 -3.06,0.1428 -5.6088,2.0148 -7.6488,5.6124 -1.4532,2.5248 -2.3976,6.1476 -2.8296,10.866 -0.0516,6.0048 1.1088,10.9128 3.48,14.7252 1.8852,2.6688 4.0404,4.1472 6.462,4.4328 z"
   id="path29" /><path
   d="m 314.6224,334.6516 0.0396,43.1052 h 21.684 l -0.0396,9.3648 H 304.03 v -52.47 h 10.5924 z"
   id="path31" /><path
   d="m 364.6548,334.6516 0.0396,43.1052 h 21.684 l -0.0396,9.3648 h -32.2764 v -52.47 h 10.5924 z"
   id="path33" />
</svg>