<?xml version="1.0" encoding="utf-8"?>
<!-- Generator: Adobe Illustrator 13.0.0, SVG Export Plug-In . SVG Version: 6.00 Build 14948)  -->
<!DOCTYPE svg PUBLIC "-//W3C//DTD SVG 1.1//EN" "http://www.w3.org/Graphics/SVG/1.1/DTD/svg11.dtd">
<svg version="1.1" id="Layer_1" xmlns="http://www.w3.org/2000/svg" xmlns:xlink="http://www.w3.org/1999/xlink" x="0px" y="0px"
	 width="576px" height="576px" viewBox="-0.943 -0.943 576 576" enable-background="new -0.943 -0.943 576 576"
	 xml:space="preserve">
<circle fill="#FFFFFF" stroke="#000000" stroke-width="2" stroke-linecap="round" stroke-linejoin="round" cx="287.057" cy="287.057" r="286.969"/>
<circle fill="#0000FF" stroke="#0000FF" stroke-width="0.1764" stroke-linecap="round" stroke-linejoin="round" cx="287.057" cy="287.057" r="264.318"/>
<polygon fill="#FF0000" stroke="#FF0000" stroke-width="0.1764" stroke-linecap="round" stroke-linejoin="round" points="
	75.221,444.615 88.475,460.852 109.303,481.975 126.343,496.951 499.226,129.741 493.631,122.208 482.198,109.327 464.927,92.073 
	448.143,77.491 "/>
<path fill="#FFFFFF" stroke="#0000FF" stroke-width="0.1764" stroke-linecap="round" stroke-linejoin="round" d="M163.45,310.25
	c-8.36,0-16.719,0-25.079,0c1.357-27.729,2.714-55.457,4.071-83.186c0.553-11.307,0.564-14.229,7.058-23.442
	c7.673-10.889,13.293-20.168,24.024-27.833c10.297-7.354,25.024-12.873,19.185-28.52c-1.922-5.148-8.934-10.867-12.411-15.096
	c-4.855-5.906-5.59-6.057-4.573-13.472c0.696-5.085,0.049-14.932,2.653-19.368c2.843-4.839,12.904-9.417,17.459-12.742
	c9.491-6.926,22.326-0.058,30.312,5.769c9.652,7.045,9.552,6.902,9.771,18.748c0.125,6.734,2.946,17.63-1.807,22.893
	c-4.505,4.989-16.511,13.301-13.809,20.063c3.785,9.472,9.9,11.556,18.647,17.027c4.834,3.024,15.089,6.851,18.13,11.83
	c4.911,8.039,9.822,16.078,14.733,24.117c5.176,8.473,10.352,16.946,15.528,25.418c2.07,3.39-11.045,13.08-13.882,15.872
	c-7.456-10.734-14.88-21.485-22.236-32.288c0.119,14.535,0.237,29.07,0.356,43.605c0.018,2.065,1.294,8.944-0.307,10.52
	c-3.476,3.421-6.951,6.841-10.426,10.262c-21.338,21.003-42.678,42.005-64.017,63.007c-1.507-41.127-2.853-82.258-4.207-123.39
	c-0.07-2.145-0.142-4.291-0.212-6.436c0.012,0.352-5.923-1.708-6.023,1.557c-0.313,10.095-0.625,20.191-0.938,30.287
	C164.787,267.051,164.118,288.65,163.45,310.25"/>
<path fill="#FFFFFF" stroke="#0000FF" stroke-width="0.1764" stroke-linecap="round" stroke-linejoin="round" d="M328.303,298.568
	c2.967,3.918,5.79,9.367,9.506,12.554c4.059,3.479,6.843,2.626,12.288,2.626c5.74,0,30.838,3.466,32.3-5.07
	c1.154-6.744-3.441-9.521-7.787-14.678c-1.56-1.852-2.33-11.172-0.726-12.783c2.598-2.608,6.91-9.323,10.715-9.323
	c8.065,0,11.145-1.386,16.288,4.759c3.783,4.521,4.331,9.889,5.795,15.589c0.877,3.41-7.951,8.137-10.528,10.207
	c-10.813,8.685,10.67,14.102,15.269,18.08c9.388,8.123,15.927,14.205,22.505,24.609c6.647,10.518,8.671,18.243,11.345,30.519
	c-10.947-9.882-21.895-19.765-32.842-29.646c5.175,22.09,10.351,44.178,15.524,66.269c-4.776-0.291-9.554-0.581-14.331-0.872
	c-0.267,12.853-0.532,25.705-0.8,38.558c-0.125,6.008-0.25,12.016-0.374,18.022c-0.046,2.207-11.603,0.969-13.95,0.969
	c-0.831,0-0.4-33.494-0.4-36.438c0-6.473,0-12.944,0-19.417c0-3.699-9.435-1.692-12.539-1.692
	c0.398,19.183,0.796,38.366,1.194,57.549c-5.803,0-16.686,3.44-16.757-3.549c-0.116-11.438-0.232-22.872-0.351-34.309
	c-0.022-2.18,0.803-20.534-0.986-20.587c-9.892-0.283-19.783-0.565-29.677-0.85c10.151-25.868,20.302-51.734,30.453-77.604
	c-6.369-0.437-12.738-0.873-19.108-1.31c-4.454-0.306-15.239,1.062-19.106-1.308c-4.262-2.609-8.192-14.1-10.729-18.463
	C317.381,305.624,324.309,302.5,328.303,298.568"/>
<polygon fill="#FFFFFF" stroke="#0000FF" stroke-width="0.1764" stroke-linecap="round" stroke-linejoin="round" points="
	252.513,373.165 253.019,434.901 253.62,495.909 230.929,495.038 226.855,398.417 "/>
<polygon fill="#FFFFFF" stroke="#0000FF" stroke-width="0.1764" stroke-linecap="round" stroke-linejoin="round" points="
	203.085,421.813 203.461,466.276 181.368,467.148 180.521,444.022 "/>
</svg>
