<?xml version="1.0" encoding="utf-8"?>
<!-- Generator: Adobe Illustrator 13.0.0, SVG Export Plug-In . SVG Version: 6.00 Build 14948)  -->
<!DOCTYPE svg PUBLIC "-//W3C//DTD SVG 1.1//EN" "http://www.w3.org/Graphics/SVG/1.1/DTD/svg11.dtd">
<svg version="1.1" id="Layer_1" xmlns="http://www.w3.org/2000/svg" xmlns:xlink="http://www.w3.org/1999/xlink" x="0px" y="0px"
	 width="576px" height="576px" viewBox="-0.933 -0.933 576 576" enable-background="new -0.933 -0.933 576 576"
	 xml:space="preserve">
<circle fill="#FFFFFF" stroke="#000000" stroke-width="2" stroke-linecap="round" stroke-linejoin="round" cx="287.067" cy="287.067" r="286.979"/>
<circle fill="#0000FF" stroke="#0000FF" stroke-width="0.1764" stroke-linecap="round" stroke-linejoin="round" cx="287.067" cy="287.067" r="261.614"/>
<polygon fill="#FFFFFF" stroke="#0000FF" stroke-width="0.1764" stroke-linecap="round" stroke-linejoin="round" points="
	128.084,391.434 124.916,344.336 179.847,308.727 174.618,283.286 177.232,257.208 150.652,215.211 112.306,230.483 
	107.554,225.432 117.14,202.536 119.754,194.267 132.827,168.19 134.57,151.654 145.028,159.287 163.329,161.194 189.474,175.187 
	207.775,192.995 217.362,213.984 253.964,193.631 248.3,177.095 253.093,161.831 242.635,155.47 237.406,137.662 230.434,134.482 
	241.328,121.761 250.914,116.037 258.758,115.401 266.165,133.846 260.5,142.75 261.372,151.654 275.316,156.742 311.843,210.573 
	196.556,324.042 195.968,322.709 161.1,344.344 144.965,353.881 144.3,375.475 "/>
<polygon fill="#FF0000" stroke="#FF0000" stroke-width="0.1764" stroke-linecap="round" stroke-linejoin="round" points="
	77.315,442.35 90.31,458.598 115.263,483.877 128.462,494.333 496.829,131.774 490.717,123.787 479.647,111.433 462.772,94.266 
	445.659,79.813 "/>
<polygon fill="#0000FF" stroke="#0000FF" stroke-width="0.1764" stroke-linecap="round" stroke-linejoin="round" points="
	220.014,228.908 256.717,213.346 263.821,230.637 230.669,237.553 "/>
<polygon fill="#FFFFFF" stroke="#0000FF" stroke-width="0.1764" stroke-linecap="round" stroke-linejoin="round" points="
	243.882,381.68 268.318,437.881 251.32,441.063 229.2,396.131 "/>
<polygon fill="#FFFFFF" stroke="#0000FF" stroke-width="0.1764" stroke-linecap="round" stroke-linejoin="round" points="
	387.104,240.716 389.048,241.325 400.813,250.229 438.287,245.777 457.46,250.865 466.175,263.585 470.548,294.114 477.086,317.646 
	455.294,322.098 450.935,298.566 449.628,278.213 431.758,265.493 406.478,263.585 406.478,303.018 444.397,357.08 447.021,432.758 
	434.817,432.758 432.202,376.152 393.847,348.168 365.082,318.912 376.849,371.701 340.238,438.483 331.086,438.483 362.03,379.969 
	321.06,317.003 307.717,318.854 "/>
</svg>
