<?xml version="1.0" encoding="UTF-8" standalone="no"?>
<!-- Created with Inkscape (http://www.inkscape.org/) -->

<svg
   xmlns:dc="http://purl.org/dc/elements/1.1/"
   xmlns:cc="http://creativecommons.org/ns#"
   xmlns:rdf="http://www.w3.org/1999/02/22-rdf-syntax-ns#"
   xmlns:svg="http://www.w3.org/2000/svg"
   xmlns="http://www.w3.org/2000/svg"
   xmlns:sodipodi="http://sodipodi.sourceforge.net/DTD/sodipodi-0.dtd"
   xmlns:inkscape="http://www.inkscape.org/namespaces/inkscape"
   width="784.4375"
   height="123"
   id="svg3045"
   version="1.1"
   inkscape:version="0.48.4 r9939"
   sodipodi:docname="Nouveau document 2">
  <defs
     id="defs3047" />
  <sodipodi:namedview
     id="base"
     pagecolor="#ffffff"
     bordercolor="#666666"
     borderopacity="1.0"
     inkscape:pageopacity="0.0"
     inkscape:pageshadow="2"
     inkscape:zoom="0.35"
     inkscape:cx="392.2222"
     inkscape:cy="61.489318"
     inkscape:document-units="px"
     inkscape:current-layer="layer1"
     showgrid="false"
     fit-margin-top="0"
     fit-margin-left="0"
     fit-margin-right="0"
     fit-margin-bottom="0"
     inkscape:window-width="511"
     inkscape:window-height="435"
     inkscape:window-x="844"
     inkscape:window-y="147"
     inkscape:window-maximized="0" />
  <metadata
     id="metadata3050">
    <rdf:RDF>
      <cc:Work
         rdf:about="">
        <dc:format>image/svg+xml</dc:format>
        <dc:type
           rdf:resource="http://purl.org/dc/dcmitype/StillImage" />
        <dc:title></dc:title>
      </cc:Work>
    </rdf:RDF>
  </metadata>
  <g
     inkscape:label="Calque 1"
     inkscape:groupmode="layer"
     id="layer1"
     transform="translate(17.2222,-470.8515)">
    <g
       id="g4571"
       transform="translate(-1594.9097,58.695251)">
      <rect
         style="color:#000000;fill:#ffffff;fill-opacity:1;fill-rule:nonzero;stroke:#000000;stroke-width:3;marker:none;visibility:visible;display:inline;overflow:visible;enable-background:accumulate"
         id="rect4529"
         width="781.42859"
         height="120"
         x="1579.1954"
         y="413.66693" />
      <g
         transform="translate(-401.42857,0)"
         id="g4567">
        <path
           inkscape:connector-curvature="0"
           id="path4531"
           d="m 2202.5665,433.63872 c -2.6653,0 -5.3045,0.42609 -7.9695,1.26945 -3.8476,1.18145 -7.5998,3.85792 -11.1427,8.11043 -5.2981,7.7957 -7.8989,17.63801 -7.8989,29.55014 0,0.74317 -0.034,1.51387 0,2.25681 0.068,8.80743 2.7012,17.37261 7.8989,25.74176 5.0276,6.27733 11.2648,9.45041 18.689,9.45041 0.7096,0 1.4435,-0.0733 2.1864,-0.14105 7.1541,-0.64138 12.7292,-3.62433 16.644,-8.95672 5.5007,-7.93067 8.2514,-17.53961 8.2514,-28.84489 l 0,-0.91683 c 0,-9.04418 -1.7366,-16.64083 -5.0779,-22.85023 -3.9145,-8.40255 -9.9579,-13.20923 -18.1249,-14.4577 -1.148,-0.13315 -2.2735,-0.21147 -3.4558,-0.21147 z m -87.4515,0.42315 c -4.691,0.26992 -9.2213,1.9395 -13.5409,5.07783 -3.8465,3.20603 -6.0598,7.50909 -6.6998,12.97668 -0.1692,4.38633 0.5293,8.14246 2.1155,11.21353 2.4299,4.58968 6.1117,7.88237 11.0726,9.87356 1.08,0.57459 6.933,2.51239 17.6314,5.8536 l 1.9748,0.91683 1.6925,1.26947 c 0.5735,0.57345 1.1156,1.27238 1.6222,2.11576 0.4047,1.24937 0.5584,2.37213 0.4229,3.38521 -0.5743,2.59804 -1.2685,4.26199 -2.0451,4.93679 -0.7763,0.97833 -2.7945,1.94661 -6.1358,2.89153 -0.7093,0.20311 -2.5274,0.27929 -5.4304,0.21147 -2.7329,-0.30445 -5.291,-1.19148 -7.6871,-2.60944 -1.485,-1.01286 -2.6856,-2.13698 -3.5969,-3.38523 -1.7882,0.84337 -5.6637,2.23775 -11.6366,4.16101 -0.7766,0.13496 -1.199,0.4043 -1.199,0.77577 l 0,0.0704 c 1.4177,3.27418 3.083,5.79245 5.0071,7.54622 2.3284,2.15977 5.3889,4.09871 9.1685,5.85361 2.3625,1.01195 5.3027,1.70717 8.7453,2.04524 l 4.584,0 c 5.2644,-0.26992 10.343,-2.09274 15.3039,-5.50098 0.9115,-0.50644 2.4184,-2.01579 4.4431,-4.51363 1.1812,-1.48475 2.1892,-3.7734 3.0328,-6.91149 0.4046,-2.2277 0.5642,-4.04353 0.5642,-5.35992 0,-0.37149 0.034,-0.64692 0,-0.91684 -0.1354,-4.11755 -1.2925,-7.94918 -3.3852,-11.42511 l -2.8211,-3.80837 c -1.5517,-1.61994 -3.7638,-3.16361 -6.7,-4.51363 -3.4093,-1.28277 -9.9516,-3.30093 -19.5354,-6.13571 l -1.2698,-0.56421 c -1.316,-0.91039 -2.2412,-1.9553 -2.6796,-3.10311 -0.2031,-0.27014 -0.2794,-1.2382 -0.2121,-2.89155 0.4374,-1.41794 0.8584,-2.26899 1.1283,-2.5389 0.7764,-1.01287 2.0966,-1.82701 4.0198,-2.46839 4.4882,-1.18144 8.3661,-1.10742 11.7075,0.14104 2.9693,1.28277 4.789,2.9491 5.4304,5.00731 l 0.4938,0.21147 10.4377,-5.00731 0.14,-0.56421 c -1.6198,-3.54296 -3.6378,-6.33408 -6.1357,-8.39252 -2.4976,-2.22656 -5.9833,-3.9704 -10.4377,-5.21887 -2.1946,-0.50643 -4.9808,-0.70526 -8.3221,-0.70526 l -1.2694,0 z m 166.7926,0 c -4.6912,0.26992 -9.2212,1.9395 -13.5408,5.07783 -3.8465,3.20603 -6.0595,7.50909 -6.7,12.97668 -0.1692,4.38633 0.5294,8.14246 2.1158,11.21353 2.4296,4.58968 6.1112,7.88237 11.0725,9.87356 1.0798,0.57459 6.9339,2.51239 17.6312,5.8536 l 1.9747,0.91683 1.6925,1.26947 c 0.5736,0.57345 1.1158,1.27238 1.6223,2.11576 0.4051,1.24937 0.5585,2.37213 0.423,3.38521 -0.5734,2.59804 -1.2687,4.26199 -2.0453,4.93679 -0.7763,0.97833 -2.7946,1.94661 -6.1355,2.89153 -0.7096,0.20311 -2.5277,0.27929 -5.4306,0.21147 -2.733,-0.30445 -5.2908,-1.19148 -7.6872,-2.60944 -1.4849,-1.01286 -2.6851,-2.13698 -3.5968,-3.38523 -1.7882,0.84337 -5.6638,2.23775 -11.6366,4.16101 -0.7764,0.13496 -1.1989,0.4043 -1.1989,0.77577 l 0,0.0704 c 1.418,3.27418 3.0839,5.79245 5.0072,7.54622 2.3283,2.15977 5.3885,4.09871 9.1683,5.85361 2.3628,1.01195 5.3027,1.70717 8.7452,2.04524 l 4.584,0 c 5.2645,-0.26992 10.343,-2.09274 15.3041,-5.50098 0.9113,-0.50644 2.4185,-2.01579 4.443,-4.51363 1.1817,-1.48475 2.1893,-3.7734 3.0328,-6.91149 0.4048,-2.2277 0.5642,-4.04353 0.5642,-5.35992 0,-0.37149 0.034,-0.64692 0,-0.91684 -0.1354,-4.11755 -1.2925,-7.94918 -3.3852,-11.42511 l -2.8211,-3.80837 c -1.5517,-1.61994 -3.7639,-3.16361 -6.7001,-4.51363 -3.4081,-1.28277 -9.9514,-3.30093 -19.5354,-6.13571 l -1.2695,-0.56421 c -1.3163,-0.91039 -2.2414,-1.9553 -2.6799,-3.10311 -0.203,-0.27014 -0.2791,-1.2382 -0.2121,-2.89155 0.4385,-1.41794 0.8587,-2.26899 1.1284,-2.5389 0.7765,-1.01287 2.0968,-1.82701 4.02,-2.46839 4.488,-1.18144 8.3661,-1.10742 11.7073,0.14104 2.9695,1.28277 4.7889,2.9491 5.4304,5.00731 l 0.4937,0.21147 10.4378,-5.00731 0.1399,-0.56421 c -1.6197,-3.54296 -3.6378,-6.33408 -6.1356,-8.39252 -2.4967,-2.22656 -5.9832,-3.9704 -10.4377,-5.21887 -2.1944,-0.50643 -4.9809,-0.70526 -8.3223,-0.70526 l -1.2692,0 z m -79.0591,12.55352 c 3.0703,0.43827 5.8615,2.49705 8.3926,6.27677 3.1049,5.43282 4.6154,12.44192 4.5136,20.94604 -0.5065,6.68219 -1.7106,11.72041 -3.6674,15.16295 -2.701,5.16292 -6.0293,7.8368 -9.944,8.0399 -3.2062,-0.40509 -6.037,-2.49705 -8.5334,-6.27676 -3.1394,-5.39943 -4.652,-12.37139 -4.5843,-20.87552 0.5734,-6.68129 1.8147,-11.79681 3.738,-15.37454 2.6998,-5.09475 6.0353,-7.69572 10.0849,-7.89884 z m -52.0476,47.04043 0,15.30401 15.2334,0 0,-15.30401 -15.2334,0 z m 85.5472,0 0,15.30401 15.163,0 0,-15.30401 -15.163,0 z m 81.3864,0.0705 0,15.23348 15.2335,0 0,-15.23348 -15.2335,0 z"
           style="stroke:#000000;stroke-width:3.23965383;stroke-miterlimit:10" />
        <path
           id="path4533"
           d="m 1996.5605,489.15336 c 3.2009,-8.35873 7.945,-17.66216 14.065,-24.30359 6.4656,-7.01608 13.2064,-15.00605 21.095,-20.47556 1.846,-1.28018 3.693,-2.56007 5.5387,-3.84055 l 12.9176,-8.09483 c 2.697,-1.10495 5.5632,-1.99107 8.0843,-3.03876 4.1046,-1.70587 7.7471,-2.45551 12.0763,-1.21863 4.015,1.14712 6.9837,6.34735 9.3944,9.38669 l 0.76,1.70956 0.19,3.03934 -0.7599,2.65924 -1.8996,2.46949 -7.788,4.93867 -10.2574,5.69858 -2.4695,1.13972 -2.2795,0.56984 -1.7095,-0.56984 -1.1397,-0.56987 -8.0627,-7.71958 -5.6783,6.29266 c -0.2493,0.34163 -0.5112,0.67386 -0.7896,0.99297 -2.4344,2.79544 -4.6554,5.4108 -7.542,7.72043 -5.3008,4.24032 -9.7919,9.04475 -15.348,13.03865 2.7766,2.65329 5.553,5.30647 8.3299,7.95975 0.7157,0.68417 2.4512,1.64978 2.2088,2.74096 -0.2534,1.13802 -0.1513,3.14028 -0.7554,4.07026 -2.2635,3.48237 -4.527,6.9645 -6.7901,10.44664 -1.6814,2.58689 -3.2568,6.2266 -5.4627,8.40399 -2.9473,2.90939 -6.3339,2.41561 -9.4271,0.41425 -2.1284,-1.37704 -6.0596,-3.04051 -7.427,-5.19085 -4.0979,-6.44108 -1.5879,-12.10547 0.926,-18.66963 z"
           inkscape:connector-curvature="0" />
      </g>
      <g
         transform="translate(384.28571,0)"
         id="g4561">
        <path
           inkscape:connector-curvature="0"
           id="path4535"
           d="m 1744.8383,440.51635 c -4.5096,0 -8.5919,1.83115 -12.2812,5.53125 -3.6894,3.7001 -6.737,9.37674 -9.0938,16.96875 -1.9214,6.22201 -2.875,12.38064 -2.875,18.4375 0,6.68817 1.5097,11.77718 4.4688,15.3125 2.9591,3.53546 6.7206,5.3125 11.2812,5.3125 4.56,0 8.6432,-1.8722 12.2812,-5.53125 3.6376,-3.65902 6.517,-8.91535 8.6563,-15.78125 2.1388,-6.86549 3.2187,-13.36427 3.2187,-19.53125 0,-6.74279 -1.4728,-11.87038 -4.4062,-15.40625 -2.9339,-3.53539 -6.69,-5.3125 -11.25,-5.3125 z m -0.375,9.4375 c 1.5374,0 2.7944,0.67114 3.7812,2 0.986,1.3298 1.5,3.51657 1.5,6.53125 0,3.70008 -0.6622,8.70007 -1.9687,15.03125 -1.6397,7.97553 -3.5299,13.31799 -5.6563,16.03125 -1.5887,2.02879 -3.4189,3.03125 -5.4687,3.03125 -1.5369,0 -2.7767,-0.65339 -3.75,-1.96875 -0.9743,-1.31534 -1.4375,-3.57806 -1.4375,-6.8125 0,-4.00106 0.679,-9.13746 2.0625,-15.46875 1.6143,-7.31805 3.5211,-12.46952 5.75,-15.375 1.5113,-2.00029 3.2399,-3 5.1875,-3 z"
           style="fill:#000000" />
        <path
           inkscape:connector-curvature="0"
           id="path4537"
           d="m 1791.6821,440.51635 c -4.5097,0 -8.5919,1.83115 -12.2813,5.53125 -3.6894,3.7001 -6.7365,9.37674 -9.0937,16.96875 -1.9215,6.22201 -2.875,12.38064 -2.875,18.4375 0,6.68817 1.4783,11.77718 4.4374,15.3125 2.9592,3.53546 6.6896,5.3125 11.25,5.3125 4.5601,0 8.6745,-1.8722 12.3126,-5.53125 3.638,-3.65902 6.5168,-8.91535 8.6562,-15.78125 2.1388,-6.86549 3.25,-13.36427 3.25,-19.53125 0,-6.74279 -1.4733,-11.87038 -4.4062,-15.40625 -2.9341,-3.53539 -6.6904,-5.3125 -11.25,-5.3125 z m -0.375,9.4375 c 1.5369,0 2.7947,0.67114 3.7812,2 0.9858,1.3298 1.4688,3.51657 1.4688,6.53125 0,3.70008 -0.631,8.70007 -1.9376,15.03125 -1.6395,7.97553 -3.5613,13.31799 -5.6874,16.03125 -1.5888,2.02879 -3.3878,3.03125 -5.4376,3.03125 -1.537,0 -2.8079,-0.65339 -3.7812,-1.96875 -0.9743,-1.31534 -1.4688,-3.57806 -1.4688,-6.8125 0,-4.00106 0.6792,-9.13746 2.0626,-15.46875 1.6144,-7.31805 3.5522,-12.46952 5.7812,-15.375 1.5108,-2.00029 3.2712,-3 5.2188,-3 z"
           style="fill:#000000" />
        <path
           inkscape:connector-curvature="0"
           id="path4539"
           d="m 1696.0677,441.58313 c -6.5981,0 -15.0149,6.10771 -16.7235,16.02263 l 4.6399,0 4.6398,0 c 1.4337,-2.32061 2.3621,-5.94172 7.3103,-5.94172 4.9483,0 6.0753,3.27664 6.0753,7.07667 0,3.80006 -1.1129,6.18475 -3.3714,8.77902 -3.8098,5.75385 -14.2861,16.55512 -20.796,21.43026 l -4.3396,3.23797 -1.3352,9.88061 16.7237,0 16.6902,0 1.4687,-9.14625 -11.1824,-0.0331 -11.1492,0 4.1727,-3.47156 c 9.2294,-8.60458 23.7334,-20.3357 23.7334,-32.14541 0,-11.80971 -9.8519,-15.68882 -16.5567,-15.68882 z"
           style="fill:#000000" />
        <path
           inkscape:connector-curvature="0"
           id="path4541"
           d="m 1856.5281,461.68451 c -4.0277,0 -7.8927,1.92343 -11.5496,5.73593 l 0.9302,-4.80577 -9.379,0 -7.6739,39.4539 9.9605,0 3.5267,-18.13795 c 0.6252,-3.14391 1.0787,-5.15452 1.3566,-6.04597 0.625,-1.90607 1.3795,-3.47641 2.2479,-4.68946 0.8678,-1.21315 1.8652,-2.13587 3.0229,-2.82927 1.1566,-0.69291 2.2835,-1.04635 3.3719,-1.04635 1.157,0 2.0536,0.33906 2.7128,1.00766 0.6601,0.66847 1.0078,1.518 1.0078,2.5579 0,0.8168 -0.2817,2.59973 -0.8139,5.34838 l -4.6507,23.83506 9.9604,0 3.5268,-17.90542 c 0.9946,-5.1002 2.1923,-8.65251 3.6042,-10.6579 1.9439,-2.79803 4.1507,-4.18568 6.6273,-4.18568 1.2266,0 2.1384,0.29875 2.7518,0.93015 0.6128,0.63139 0.93,1.50747 0.93,2.59661 0,0.39661 -0.2743,2.09544 -0.8526,5.11583 l -4.7283,24.10641 9.9604,0 4.7283,-24.10641 c 0.6474,-3.34247 0.9689,-5.69178 0.9689,-7.05365 0,-2.77261 -0.8375,-4.98177 -2.4805,-6.66609 -1.6437,-1.68307 -3.9206,-2.55791 -6.8598,-2.55791 -2.5695,0 -5.058,0.67839 -7.4411,2.01532 -2.3845,1.33706 -4.1921,3.01903 -5.4646,4.99965 -0.4165,-2.1788 -1.4025,-3.91632 -2.9068,-5.15467 -1.5044,-1.23747 -3.6175,-1.8603 -6.3946,-1.8603 z"
           style="fill:#000000" />
      </g>
      <path
         style="fill:#000000;stroke:none"
         d="m 2362.124,413.6726 0,120 -77.8437,0 75.5937,-57.375 -82.5312,-62.625 84.7812,0 z"
         id="path4543"
         inkscape:connector-curvature="0" />
    </g>
  </g>
</svg>
