<?xml version="1.0" encoding="UTF-8" standalone="no"?>
<!-- Created with Inkscape (http://www.inkscape.org/) -->

<svg
   xmlns:dc="http://purl.org/dc/elements/1.1/"
   xmlns:cc="http://creativecommons.org/ns#"
   xmlns:rdf="http://www.w3.org/1999/02/22-rdf-syntax-ns#"
   xmlns:svg="http://www.w3.org/2000/svg"
   xmlns="http://www.w3.org/2000/svg"
   xmlns:sodipodi="http://sodipodi.sourceforge.net/DTD/sodipodi-0.dtd"
   xmlns:inkscape="http://www.inkscape.org/namespaces/inkscape"
   width="737.46875"
   height="211.15625"
   id="svg3207"
   version="1.1"
   inkscape:version="0.48.4 r9939"
   sodipodi:docname="Nouveau document 8">
  <defs
     id="defs3209" />
  <sodipodi:namedview
     id="base"
     pagecolor="#ffffff"
     bordercolor="#666666"
     borderopacity="1.0"
     inkscape:pageopacity="0.0"
     inkscape:pageshadow="2"
     inkscape:zoom="0.35"
     inkscape:cx="-1.978"
     inkscape:cy="165.56425"
     inkscape:document-units="px"
     inkscape:current-layer="layer1"
     showgrid="false"
     fit-margin-top="0"
     fit-margin-left="0"
     fit-margin-right="0"
     fit-margin-bottom="0"
     inkscape:window-width="698"
     inkscape:window-height="435"
     inkscape:window-x="150"
     inkscape:window-y="150"
     inkscape:window-maximized="0" />
  <metadata
     id="metadata3212">
    <rdf:RDF>
      <cc:Work
         rdf:about="">
        <dc:format>image/svg+xml</dc:format>
        <dc:type
           rdf:resource="http://purl.org/dc/dcmitype/StillImage" />
        <dc:title></dc:title>
      </cc:Work>
    </rdf:RDF>
  </metadata>
  <g
     inkscape:label="Calque 1"
     inkscape:groupmode="layer"
     id="layer1"
     transform="translate(-376.978,-486.77018)">
    <g
       id="g4411"
       transform="translate(1116.103,-19.573572)">
      <g
         transform="matrix(-1,0,0,1,9.2226604,0)"
         id="g4391">
        <g
           transform="matrix(-1,0,0,1,9.2226604,240)"
           id="g4393">
          <path
             inkscape:connector-curvature="0"
             style="fill:#ffffff;stroke:#000000;stroke-width:2.97425795;stroke-miterlimit:4;stroke-dasharray:none"
             d="m -3.1359231,443.77678 c 0,17.80943 -12.8544989,32.24885 -28.7064569,32.24885 h -677.09259 c -15.85456,0 -28.70645,-14.43942 -28.70645,-32.24885 V 300.09473 c 0,-17.80942 12.8545,-32.24885 28.70645,-32.24885 h 677.09259 c 15.85458,0 28.7064569,14.43943 28.7064569,32.24885 v 143.68205 z"
             id="path4395" />
          <path
             inkscape:connector-curvature="0"
             id="path4397"
             transform="translate(-737.64142,-60.108654)"
             d="M 28.71875,327.96875 C 12.8668,327.96875 0,342.40933 0,360.21875 L 0,503.875 c 0,17.80943 12.86419,32.25 28.71875,32.25 l 558.46875,0 132.125,-97.5625 c 0,0 4.34375,-2.67832 4.34375,-6.53125 0,-3.85293 -4.34375,-6.5 -4.34375,-6.5 l -132.125,-97.5625 -558.46875,0 z"
             style="fill:#00aa4f;fill-opacity:1;stroke:none" />
          <path
             id="path4399"
             d="m -3.1359231,443.77678 c 0,17.80943 -12.8544989,32.24885 -28.7064569,32.24885 h -677.09259 c -15.85456,0 -28.70645,-14.43942 -28.70645,-32.24885 V 300.09473 c 0,-17.80942 12.8545,-32.24885 28.70645,-32.24885 h 677.09259 c 15.85458,0 28.7064569,14.43943 28.7064569,32.24885 v 143.68205 z"
             style="fill:none;stroke:#000000;stroke-width:2.97425795;stroke-miterlimit:4;stroke-dasharray:none"
             inkscape:connector-curvature="0" />
          <path
             inkscape:connector-curvature="0"
             style="fill:none;stroke:none"
             d="m -3.1359231,443.77678 c 0,17.80943 -12.8544989,32.24885 -28.7064569,32.24885 h -677.09259 c -15.85456,0 -28.70645,-14.43942 -28.70645,-32.24885 V 300.09473 c 0,-17.80942 12.8545,-32.24885 28.70645,-32.24885 h 677.09259 c 15.85458,0 28.7064569,14.43943 28.7064569,32.24885 v 143.68205 z"
             id="path4401" />
        </g>
        <path
           inkscape:connector-curvature="0"
           id="path4403"
           d="m 644.3612,531.91958 c -7.53876,0 -13.64586,5.96649 -13.64586,13.32128 0,7.35473 6.1071,13.32123 13.64586,13.32123 7.53878,0 13.6459,-5.9665 13.6459,-13.32123 0,-7.35479 -6.10712,-13.32128 -13.6459,-13.32128 z m 1.13614,28.36542 -1.19856,0.13734 -24.85718,26.43025 -9.60079,0 c -4.24763,0 -7.69063,3.4434 -7.69063,7.69063 0,4.24682 3.443,7.69062 7.69063,7.69062 0.3152,0 0.61825,-0.0252 0.92387,-0.0625 l 16.19276,0 10.99907,-11.11149 0.0749,-0.0124 0.83646,-0.91138 3.24606,-3.28352 -0.24969,0 1.76035,-1.92265 12.12271,19.83834 -18.34013,35.35688 -0.48691,-0.11238 -7.92783,38.31579 c -0.10109,0.29081 -0.19827,0.59005 -0.26218,0.89891 -0.86095,4.15933 2.07197,8.2861 6.55451,9.21374 4.48372,0.92849 8.82723,-1.69643 9.68818,-5.85535 l 7.41593,-35.80634 0.16233,0.0748 15.04418,-25.30664 8.58952,28.3404 0,1.62308 31.68634,3.65803 7.44091,0 c 0.30523,0.0401 0.6087,0.0748 0.92392,0.0748 4.24762,0 7.69062,-3.71187 7.69062,-8.28988 0,-4.57842 -3.443,-8.28989 -7.69062,-8.28989 l -26.4428,0 -4.74422,-35.35689 -11.18637,-27.47901 13.50859,-0.29966 9.07641,17.5037 c 0.10548,0.28962 0.22951,0.56889 0.37453,0.84898 1.95522,3.77059 6.83495,5.11663 10.89921,3.00881 4.06426,-2.10784 5.77594,-6.86644 3.82037,-10.63703 l -13.47111,-25.96834 -52.57338,0 z"
           style="fill:#ffffff" />
        <rect
           y="532.59546"
           x="175.21576"
           height="156.78577"
           width="78.571922"
           id="rect4405"
           style="color:#000000;fill:#ffffff;fill-opacity:1;fill-rule:nonzero;stroke:none;stroke-width:3;marker:none;visibility:visible;display:inline;overflow:visible;enable-background:accumulate" />
        <path
           style="fill:#ffffff;fill-opacity:1"
           sodipodi:nodetypes="cccccccccc"
           inkscape:connector-curvature="0"
           id="path4407"
           d="m 352.5996,542.20861 24.10012,0.11493 -18.93643,19.39611 102.94677,0.11414 0,16.75602 -103.06169,0.23064 18.82229,19.39532 -24.33075,0.11414 -27.65803,-28.11772 z" />
      </g>
      <path
         d="m -437.32892,624.26635 c -4.2218,0 -8.0461,1.72355 -11.5,5.1875 -3.4539,3.46395 -6.2936,8.76757 -8.5,15.875 -1.7988,5.82494 -2.6875,11.5797 -2.6875,17.25 0,6.26132 1.386,11.03399 4.1562,14.34375 2.7703,3.30974 6.2931,4.96875 10.5626,4.96875 4.269,0 8.0941,-1.73074 11.5,-5.15625 3.4054,-3.42551 6.1222,-8.3535 8.125,-14.78125 2.0023,-6.42731 3,-12.50785 3,-18.28125 0,-6.31243 -1.3788,-11.12731 -4.125,-14.4375 -2.7467,-3.30975 -6.2623,-4.96875 -10.5313,-4.96875 z m 43.8437,0 c -4.2218,0 -8.0461,1.72355 -11.5,5.1875 -3.4539,3.46395 -6.2932,8.76757 -8.5,15.875 -1.7988,5.82494 -2.6874,11.5797 -2.6874,17.25 0,6.26132 1.3859,11.03399 4.1562,14.34375 2.7703,3.30974 6.2618,4.96875 10.5312,4.96875 4.269,0 8.1254,-1.73074 11.5313,-5.15625 3.4059,-3.42551 6.0909,-8.3535 8.0937,-14.78125 2.0024,-6.42731 3.0313,-12.50785 3.0313,-18.28125 0,-6.31243 -1.3792,-11.12731 -4.125,-14.4375 -2.7467,-3.30975 -6.2627,-4.96875 -10.5313,-4.96875 z m -89.5,1 c -6.177,0 -14.0566,5.71788 -15.6562,15 l 4.3438,0 4.3437,0 c 1.3422,-2.17251 2.2113,-5.5625 6.8437,-5.5625 4.6325,0 5.6876,3.06751 5.6876,6.625 0,3.5575 -1.0419,5.79007 -3.1563,8.21875 -3.5666,5.38657 -13.3743,15.49851 -19.4687,20.0625 l -4.0626,3.03125 -1.25,9.25 15.6563,0 15.625,0 1.375,-8.5625 -10.4687,-0.0312 -10.4376,0 3.9063,-3.25 c 8.6404,-8.05538 22.2187,-19.03778 22.2187,-30.09375 0,-11.05597 -9.2231,-14.6875 -15.5,-14.6875 z m 45.3126,7.84375 c 1.4393,0 2.6073,0.63095 3.5312,1.875 0.923,1.24493 1.4062,3.27148 1.4062,6.09375 0,3.46393 -0.6206,8.1666 -1.8437,14.09375 -1.535,7.46649 -3.2907,12.45992 -5.2813,15 -1.4873,1.89928 -3.206,2.84375 -5.125,2.84375 -1.4388,0 -2.62,-0.61237 -3.5312,-1.84375 -0.9121,-1.23139 -1.3438,-3.34699 -1.3438,-6.375 0,-3.74569 0.6424,-8.57284 1.9376,-14.5 1.5113,-6.85101 3.2883,-11.65496 5.375,-14.375 1.4148,-1.87263 3.0517,-2.8125 4.875,-2.8125 z m 43.8437,0 c 1.4389,0 2.6078,0.63095 3.5313,1.875 0.9229,1.24493 1.375,3.27148 1.375,6.09375 0,3.46393 -0.5895,8.1666 -1.8126,14.09375 -1.5349,7.46649 -3.3219,12.45992 -5.3124,15 -1.4874,1.89928 -3.1749,2.84375 -5.0938,2.84375 -1.4389,0 -2.62,-0.61237 -3.5312,-1.84375 -0.9121,-1.23139 -1.375,-3.34699 -1.375,-6.375 0,-3.74569 0.6423,-8.57284 1.9374,-14.5 1.5114,-6.85101 3.3196,-11.65496 5.4063,-14.375 1.4144,-1.87263 3.0517,-2.8125 4.875,-2.8125 z m 47.2813,15.25 c -3.2475,0 -6.3639,1.55093 -9.3126,4.625 l 0.75,-3.875 -7.5624,0 -6.1876,31.8125 8.0313,0 2.8437,-14.625 c 0.5041,-2.53505 0.8698,-4.1562 1.0938,-4.875 0.504,-1.53688 1.1124,-2.80312 1.8125,-3.78125 0.6998,-0.97813 1.5039,-1.72218 2.4375,-2.28125 0.9326,-0.55874 1.8412,-0.84375 2.7188,-0.84375 0.9329,0 1.6559,0.27347 2.1874,0.8125 0.5323,0.53902 0.8126,1.22405 0.8126,2.0625 0,0.65866 -0.2271,2.09625 -0.6563,4.3125 l -3.75,19.21875 8.0313,0 2.8437,-14.4375 c 0.8021,-4.11237 1.7677,-6.97668 2.9063,-8.59375 1.5674,-2.25604 3.3467,-3.375 5.3437,-3.375 0.989,0 1.7242,0.24089 2.2187,0.75 0.4942,0.50912 0.75,1.21554 0.75,2.09375 0,0.31981 -0.2212,1.68954 -0.6874,4.125 l -3.8126,19.4375 8.0313,0 3.8125,-19.4375 c 0.522,-2.69511 0.7812,-4.5894 0.7812,-5.6875 0,-2.23563 -0.6752,-4.0169 -2,-5.375 -1.3254,-1.35708 -3.1613,-2.0625 -5.5312,-2.0625 -2.0718,0 -4.0784,0.54696 -6,1.625 -1.9226,1.07806 -3.3802,2.43424 -4.4062,4.03125 -0.3358,-1.75675 -1.1308,-3.15773 -2.3438,-4.15625 -1.213,-0.99785 -2.9169,-1.5 -5.1562,-1.5 z"
         id="path4409"
         style="fill:#ffffff"
         inkscape:connector-curvature="0" />
    </g>
  </g>
</svg>
