<?xml version="1.0" encoding="utf-8"?>
<!-- Generator: Adobe Illustrator 13.0.0, SVG Export Plug-In  -->
<!DOCTYPE svg PUBLIC "-//W3C//DTD SVG 1.1//EN" "http://www.w3.org/Graphics/SVG/1.1/DTD/svg11.dtd" [
	<!ENTITY ns_flows "http://ns.adobe.com/Flows/1.0/">
]>
<svg version="1.1"
	 xmlns="http://www.w3.org/2000/svg" xmlns:xlink="http://www.w3.org/1999/xlink" xmlns:a="http://ns.adobe.com/AdobeSVGViewerExtensions/3.0/"
	 x="0px" y="0px" width="211px" height="87px" viewBox="0 -0.444 211 87" enable-background="new 0 -0.444 211 87"
	 xml:space="preserve">
<defs>
</defs>
<path fill="#FFFFFF" d="M2.5,77.5c-0.317,0-0.619,0.061-0.898,0.162h1.796C3.119,77.561,2.817,77.5,2.5,77.5z"/>
<polygon fill="#FFFFFF" points="0,79.833 0,79.837 0,79.829 "/>
<path fill="#34347B" d="M209.091,47.292l-1.224-1.299l-27.933-29.66H2.25v70h177.684l27.527-28.814l1.888-1.975
	c0.615-1.082,0.985-2.44,0.985-3.919C210.333,49.949,209.859,48.43,209.091,47.292z"/>
<path fill="#F4F3D1" d="M199.171,47.45l-0.982-1.148l-22.322-26.108v-0.107H7.034v61.869h168.833v-0.106l21.997-25.361l1.513-1.746
	c0.494-0.956,0.791-2.157,0.791-3.465C200.167,49.798,199.788,48.455,199.171,47.45z"/>
<path fill="#34347B" d="M23.446,45.516V26.535h10.489v3.211h-7.643v4.208h7.102v3.198h-7.102v5.153h7.902v3.211H23.446z"/>
<path fill="#34347B" d="M45.658,38.538l2.763,1.178c-0.431,2.123-1.148,3.675-2.152,4.654c-1.003,0.98-2.238,1.47-3.704,1.47
	c-1.842,0-3.336-0.781-4.48-2.344c-1.317-1.804-1.976-4.238-1.976-7.302c0-3.237,0.663-5.771,1.989-7.6
	c1.154-1.588,2.704-2.382,4.649-2.382c1.585,0,2.911,0.595,3.978,1.787c0.761,0.846,1.318,2.102,1.671,3.768l-2.822,0.906
	c-0.181-1.027-0.54-1.814-1.078-2.363c-0.538-0.548-1.172-0.822-1.902-0.822c-1.044,0-1.897,0.501-2.556,1.502
	c-0.66,1.001-0.99,2.654-0.99,4.959c0,2.391,0.321,4.091,0.964,5.101c0.643,1.01,1.478,1.515,2.504,1.515
	c0.753,0,1.403-0.321,1.952-0.964C45.019,40.957,45.415,39.936,45.658,38.538z"/>
<path fill="#34347B" d="M52.302,43.496c-1.348-1.787-2.022-4.238-2.022-7.354c0-2.261,0.304-4.124,0.912-5.586
	c0.607-1.463,1.401-2.553,2.381-3.27c0.98-0.716,2.167-1.074,3.563-1.074c2.022,0,3.67,0.85,4.944,2.55
	c1.274,1.701,1.911,4.122,1.911,7.264c0,3.176-0.674,5.658-2.022,7.445c-1.184,1.579-2.791,2.369-4.821,2.369
	C55.101,45.84,53.485,45.059,52.302,43.496L52.302,43.496z M53.219,36.013c0,2.184,0.376,3.822,1.13,4.914
	c0.753,1.092,1.688,1.638,2.803,1.638c1.123,0,2.053-0.542,2.791-1.625c0.738-1.083,1.107-2.747,1.107-4.991
	c0-2.201-0.359-3.828-1.078-4.881c-0.718-1.053-1.659-1.58-2.82-1.58c-1.162,0-2.108,0.531-2.838,1.593
	C53.584,32.142,53.219,33.786,53.219,36.013z"/>
<path fill="#34347B" d="M66.201,26.535h2.845v10.28c0,1.597,0.036,2.637,0.106,3.121c0.125,0.837,0.426,1.484,0.901,1.942
	c0.475,0.458,1.102,0.686,1.879,0.686c0.66,0,1.198-0.162,1.614-0.485c0.416-0.324,0.701-0.772,0.854-1.347
	c0.153-0.574,0.23-1.806,0.23-3.696v-10.5h2.846v9.97c0,2.546-0.124,4.387-0.371,5.522c-0.247,1.135-0.804,2.054-1.669,2.758
	c-0.866,0.704-2.009,1.055-3.428,1.055c-1.474,0-2.624-0.292-3.451-0.874s-1.427-1.402-1.799-2.46
	c-0.373-1.057-0.559-3.006-0.559-5.846V26.535z"/>
<path fill="#34347B" d="M80.487,45.516V26.535h10.489v3.211h-7.643v4.208h7.102v3.198h-7.102v5.153h7.901v3.211H80.487z"/>
<path fill="#34347B" d="M93.68,45.516V26.535h2.775l5.785,12.676V26.535h2.657v18.981h-2.869l-5.691-12.377v12.377H93.68z"/>
<path fill="#34347B" d="M24.571,75.815V52.087h6.891c2.567,0,4.246,0.113,5.035,0.34c1.26,0.367,2.3,1.149,3.118,2.347
	c0.819,1.198,1.228,2.741,1.228,4.629c0,1.716-0.353,3.154-1.06,4.313c-0.707,1.16-1.59,1.975-2.65,2.444
	c-1.06,0.469-2.886,0.704-5.477,0.704h-2.809v8.951H24.571z M28.847,56.101v6.75h2.373c1.593,0,2.677-0.103,3.249-0.309
	c0.573-0.205,1.042-0.576,1.408-1.111c0.366-0.535,0.549-1.192,0.549-1.971c0-0.79-0.189-1.455-0.566-1.996
	c-0.378-0.541-0.844-0.903-1.399-1.087c-0.555-0.184-1.729-0.276-3.523-0.276H28.847z"/>
<path fill="#34347B" d="M61.357,75.815h-4.648l-1.86-5.374h-8.502l-1.756,5.374h-4.558l8.271-23.729h4.542L61.357,75.815z
	 M53.468,66.428l-2.932-8.806l-2.877,8.806H53.468z"/>
<path fill="#34347B" d="M63.619,75.815V52.087h9.028c2.309,0,3.958,0.213,4.947,0.639c0.989,0.426,1.802,1.166,2.438,2.217
	c0.636,1.052,0.954,2.313,0.954,3.78c0,1.856-0.486,3.35-1.458,4.483c-0.972,1.133-2.353,1.845-4.143,2.137
	c0.918,0.604,1.678,1.265,2.279,1.982c0.601,0.718,1.419,2.005,2.456,3.86l2.58,4.629h-5.116l-3.103-5.163
	c-1.117-1.867-1.875-3.035-2.276-3.504c-0.401-0.47-0.825-0.793-1.272-0.971c-0.448-0.178-1.166-0.267-2.156-0.267h-0.883v9.906
	H63.619z M67.895,62.122h3.18c1.943,0,3.18-0.078,3.71-0.235c0.53-0.156,0.959-0.472,1.29-0.947c0.33-0.475,0.495-1.106,0.495-1.894
	c0-0.755-0.165-1.362-0.495-1.821c-0.33-0.458-0.777-0.774-1.343-0.947c-0.4-0.119-1.561-0.178-3.48-0.178h-3.357V62.122z"/>
<path fill="#34347B" d="M84.891,75.815V52.087h4.276v23.729H84.891z"/>
<path fill="#34347B" d="M100.88,76.22c-5.206,0-8.104-2.714-8.692-8.142l4.188-0.453c0.471,3.032,2.014,4.548,4.629,4.548
	c1.295,0,2.314-0.311,3.056-0.931c0.742-0.62,1.113-1.389,1.113-2.306c0-0.539-0.13-0.997-0.389-1.375
	c-0.259-0.377-0.654-0.688-1.184-0.93c-0.53-0.243-1.814-0.649-3.852-1.22c-1.826-0.506-3.163-1.056-4.011-1.649
	c-0.848-0.593-1.522-1.372-2.023-2.337c-0.501-0.965-0.751-2.003-0.751-3.113c0-1.294,0.321-2.458,0.963-3.493
	c0.642-1.035,1.528-1.817,2.659-2.345s2.526-0.792,4.187-0.792c2.497,0,4.446,0.621,5.848,1.861
	c1.401,1.241,2.144,3.016,2.226,5.325l-4.293,0.21c-0.188-1.273-0.595-2.164-1.219-2.671c-0.625-0.507-1.514-0.761-2.668-0.761
	S98.625,55.868,98,56.309c-0.624,0.441-0.936,0.99-0.936,1.646c0,0.646,0.283,1.188,0.85,1.63c0.566,0.441,1.868,0.926,3.906,1.455
	c2.155,0.572,3.712,1.174,4.671,1.805s1.692,1.445,2.198,2.443s0.759,2.209,0.759,3.633c0,2.061-0.692,3.792-2.076,5.194
	C105.989,75.519,103.824,76.22,100.88,76.22L100.88,76.22z"/>
<path fill="#34347B" d="M163.235,31.184l-3.09,0.388c-0.148-1.407-0.755-2.11-1.82-2.11c-0.695,0-1.272,0.354-1.73,1.062
	c-0.458,0.708-0.748,2.137-0.869,4.286c0.398-0.535,0.842-0.937,1.333-1.204c0.49-0.267,1.031-0.401,1.624-0.401
	c1.305,0,2.443,0.567,3.415,1.701s1.457,2.641,1.457,4.52c0,2-0.513,3.57-1.54,4.708c-1.026,1.139-2.298,1.708-3.815,1.708
	c-1.665,0-3.045-0.74-4.141-2.219c-1.096-1.479-1.644-3.931-1.644-7.356c0-3.476,0.568-5.978,1.706-7.504
	c1.137-1.526,2.599-2.29,4.384-2.29c1.23,0,2.268,0.39,3.114,1.168C162.465,28.419,163.004,29.6,163.235,31.184z M156.003,39.127
	c0,1.198,0.239,2.113,0.716,2.747c0.477,0.633,1.021,0.95,1.633,0.95c0.593,0,1.086-0.263,1.48-0.789
	c0.394-0.525,0.591-1.387,0.591-2.584c0-1.241-0.213-2.145-0.64-2.714c-0.426-0.568-0.954-0.853-1.584-0.853
	c-0.612,0-1.13,0.271-1.557,0.814C156.216,37.241,156.003,38.051,156.003,39.127z"/>
<path fill="#34347B" d="M148.694,70.81v3.867h-12.718c0.136-1.46,0.553-2.85,1.251-4.167c0.698-1.318,2.054-3.047,4.069-5.189
	c1.595-1.707,2.576-2.862,2.943-3.464c0.545-0.878,0.818-1.762,0.818-2.65c0-0.948-0.226-1.663-0.677-2.146
	c-0.452-0.484-1.044-0.726-1.779-0.726c-1.605,0-2.471,1.131-2.597,3.393l-3.604-0.415c0.221-2.212,0.874-3.837,1.96-4.875
	c1.086-1.037,2.531-1.556,4.336-1.556c1.983,0,3.479,0.607,4.486,1.821c1.007,1.214,1.511,2.605,1.511,4.175
	c0,0.888-0.128,1.75-0.386,2.583c-0.257,0.834-0.653,1.673-1.188,2.517s-1.427,1.922-2.676,3.234
	c-1.165,1.234-1.902,2.048-2.211,2.443c-0.31,0.395-0.559,0.78-0.748,1.155H148.694z"/>
<path fill="#34347B" d="M163.427,58.275l-3.51,0.444c-0.168-1.61-0.858-2.415-2.068-2.415c-0.79,0-1.445,0.405-1.966,1.215
	c-0.521,0.81-0.85,2.445-0.987,4.904c0.452-0.612,0.957-1.072,1.514-1.378s1.172-0.459,1.845-0.459c1.482,0,2.775,0.649,3.879,1.947
	c1.104,1.297,1.656,3.021,1.656,5.172c0,2.289-0.583,4.085-1.75,5.388c-1.166,1.302-2.611,1.954-4.334,1.954
	c-1.891,0-3.459-0.847-4.704-2.539c-1.245-1.693-1.867-4.499-1.867-8.417c0-3.978,0.646-6.84,1.938-8.587
	c1.292-1.747,2.952-2.621,4.98-2.621c1.397,0,2.577,0.446,3.538,1.337C162.552,55.111,163.165,56.463,163.427,58.275z
	 M155.211,67.365c0,1.371,0.271,2.418,0.813,3.143s1.161,1.087,1.855,1.087c0.673,0,1.234-0.301,1.681-0.902
	c0.447-0.602,0.671-1.587,0.671-2.958c0-1.419-0.242-2.455-0.727-3.105c-0.484-0.65-1.084-0.976-1.8-0.976
	c-0.695,0-1.284,0.311-1.769,0.932S155.211,66.133,155.211,67.365z"/>
<rect x="71" fill="#34347B" width="37.333" height="19.667"/>
<rect x="75" y="3" fill="#E0342C" width="29.333" height="13.667"/>
<path fill="#FFFFFF" d="M76.847,15.057V3.563h2.044l4.26,7.675V3.563h1.958v11.494h-2.113l-4.191-7.495v7.495H76.847z"/>
<path fill="#FFFFFF" d="M91.984,15.057h-1.992V6.754c-0.745,0.758-1.605,1.314-2.581,1.67v-2c0.554-0.203,1.129-0.566,1.724-1.091
	c0.594-0.523,1.007-1.127,1.238-1.81h1.611V15.057z"/>
<path fill="#FFFFFF" d="M101.727,6.378l-1.931,0.235c-0.093-0.852-0.472-1.278-1.138-1.278c-0.435,0-0.795,0.214-1.082,0.643
	c-0.287,0.429-0.468,1.294-0.543,2.595c0.249-0.324,0.526-0.567,0.833-0.729s0.645-0.243,1.015-0.243
	c0.815,0,1.527,0.343,2.134,1.03c0.607,0.687,0.911,1.599,0.911,2.737c0,1.211-0.321,2.162-0.962,2.851
	c-0.642,0.689-1.437,1.034-2.384,1.034c-1.041,0-1.903-0.448-2.588-1.343c-0.685-0.896-1.027-2.38-1.027-4.455
	c0-2.105,0.355-3.62,1.066-4.544c0.711-0.925,1.624-1.387,2.74-1.387c0.769,0,1.417,0.236,1.946,0.708S101.582,5.419,101.727,6.378z
	 M97.206,11.188c0,0.725,0.149,1.279,0.447,1.663c0.298,0.383,0.639,0.575,1.021,0.575c0.371,0,0.679-0.159,0.925-0.477
	s0.369-0.84,0.369-1.565c0-0.751-0.133-1.299-0.4-1.644c-0.266-0.344-0.596-0.516-0.99-0.516c-0.382,0-0.707,0.164-0.973,0.493
	C97.339,10.046,97.206,10.536,97.206,11.188z"/>
</svg>
