<?xml version="1.0" encoding="utf-8"?>
<!-- Generator: Adobe Illustrator 13.0.0, SVG Export Plug-In  -->
<!DOCTYPE svg PUBLIC "-//W3C//DTD SVG 1.1//EN" "http://www.w3.org/Graphics/SVG/1.1/DTD/svg11.dtd" [
	<!ENTITY ns_flows "http://ns.adobe.com/Flows/1.0/">
]>
<svg version="1.1"
	 xmlns="http://www.w3.org/2000/svg" xmlns:xlink="http://www.w3.org/1999/xlink" xmlns:a="http://ns.adobe.com/AdobeSVGViewerExtensions/3.0/"
	 x="0px" y="0px" width="215px" height="103px" viewBox="0 0 215 103" enable-background="new 0 0 215 103" xml:space="preserve">
<defs>
</defs>
<polygon fill="#FFFFFF" points="18,102.277 18,102.282 18,102.273 "/>
<path fill="#34347B" d="M213.137,30.959l-1.262-1.299L183.092,0H0v70h183.092l28.365-28.814l1.945-1.975
	c0.633-1.082,1.015-2.44,1.015-3.919C214.417,33.616,213.928,32.097,213.137,30.959z"/>
<path fill="#F4F3D1" d="M203.222,31.117l-1.015-1.148L179.154,3.86V3.753H4.784v61.869h174.37v-0.106l22.719-25.361l1.562-1.746
	c0.51-0.956,0.817-2.157,0.817-3.465C204.251,33.465,203.859,32.122,203.222,31.117z"/>
<path fill="#34347B" d="M71.61,31.517h-3.094l-1.238-4.298H61.62l-1.169,4.298h-3.034l5.504-18.98h3.022L71.61,31.517z
	 M66.359,24.007l-1.951-7.043l-1.915,7.043H66.359z"/>
<path fill="#34347B" d="M79.688,24.551V21.34h6.149v7.562c-0.619,0.803-1.497,1.493-2.634,2.071s-2.277,0.868-3.422,0.868
	c-1.396,0-2.626-0.377-3.692-1.133c-1.066-0.755-1.911-1.886-2.534-3.392c-0.623-1.506-0.935-3.278-0.935-5.315
	c0-2.089,0.316-3.875,0.947-5.36c0.631-1.484,1.45-2.594,2.458-3.328c1.007-0.733,2.212-1.1,3.616-1.1
	c1.686,0,3.036,0.472,4.051,1.417s1.668,2.333,1.958,4.163l-2.822,0.712c-0.211-0.975-0.6-1.722-1.164-2.24
	c-0.564-0.518-1.239-0.777-2.022-0.777c-1.215,0-2.199,0.52-2.951,1.56c-0.752,1.041-1.129,2.626-1.129,4.758
	c0,2.288,0.407,4.027,1.223,5.218c0.698,1.027,1.643,1.541,2.834,1.541c0.557,0,1.135-0.144,1.734-0.432s1.135-0.682,1.605-1.181
	v-2.401H79.688z"/>
<path fill="#34347B" d="M88.484,31.517v-18.98h10.488v3.211h-7.643v4.208h7.103v3.198h-7.103v5.153h7.902v3.211H88.484z"/>
<path fill="#34347B" d="M101.677,31.517v-18.98h2.775l5.785,12.675V12.536h2.658v18.98h-2.869l-5.691-12.377v12.377H101.677z"/>
<path fill="#34347B" d="M9.397,55.419V36.986h2.514l5.242,12.309V36.986h2.408v18.433h-2.6l-5.156-12.021v12.021H9.397z"/>
<path fill="#34347B" d="M28.02,55.419h-2.45V42.104c-0.916,1.215-1.975,2.108-3.175,2.678v-3.207
	c0.682-0.326,1.389-0.909,2.12-1.749c0.731-0.84,1.239-1.808,1.523-2.903h1.981V55.419z"/>
<path fill="#34347B" d="M35.839,36.923c1.243,0,2.248,0.697,3.015,2.092c0.767,1.395,1.15,3.834,1.15,7.319
	c0,3.477-0.383,5.912-1.15,7.307c-0.767,1.395-1.769,2.092-3.004,2.092c-1.243,0-2.248-0.691-3.015-2.073s-1.151-3.837-1.151-7.363
	c0-3.459,0.384-5.887,1.151-7.282C33.602,37.621,34.603,36.923,35.839,36.923z M35.844,39.853c-0.484,0-0.871,0.377-1.16,1.13
	c-0.289,0.754-0.433,2.538-0.433,5.351c0,2.814,0.145,4.596,0.433,5.345s0.675,1.124,1.16,1.124c0.492,0,0.88-0.377,1.165-1.13
	c0.285-0.754,0.428-2.533,0.428-5.339c0-2.813-0.143-4.597-0.428-5.351C36.725,40.23,36.336,39.853,35.844,39.853z"/>
<path fill="#34347B" d="M69.943,54.85h-3.094l-1.238-4.298h-5.658l-1.169,4.298H55.75l5.504-18.98h3.022L69.943,54.85z
	 M64.692,47.34l-1.951-7.043l-1.915,7.043H64.692z"/>
<path fill="#34347B" d="M71.472,54.85v-18.98h2.775l5.785,12.675V35.869h2.658v18.98H79.82l-5.691-12.377V54.85H71.472z"/>
<path fill="#34347B" d="M92.272,47.884v-3.211h6.15v7.562c-0.619,0.803-1.498,1.493-2.634,2.071
	c-1.137,0.578-2.277,0.868-3.422,0.868c-1.396,0-2.626-0.377-3.692-1.133c-1.066-0.755-1.911-1.886-2.534-3.392
	c-0.623-1.506-0.935-3.278-0.935-5.315c0-2.089,0.315-3.875,0.947-5.36c0.631-1.484,1.45-2.594,2.458-3.328
	c1.007-0.733,2.212-1.1,3.616-1.1c1.686,0,3.036,0.472,4.051,1.417s1.668,2.333,1.958,4.163l-2.822,0.712
	c-0.211-0.975-0.6-1.722-1.164-2.24c-0.564-0.518-1.239-0.777-2.022-0.777c-1.215,0-2.199,0.52-2.951,1.56
	c-0.753,1.041-1.129,2.626-1.129,4.758c0,2.288,0.407,4.027,1.223,5.218c0.698,1.027,1.642,1.541,2.834,1.541
	c0.557,0,1.135-0.144,1.734-0.432s1.135-0.682,1.605-1.181v-2.401H92.272z"/>
<path fill="#34347B" d="M102.502,52.83c-1.348-1.787-2.022-4.238-2.022-7.354c0-2.261,0.304-4.124,0.912-5.586
	c0.607-1.463,1.401-2.553,2.381-3.269c0.98-0.717,2.167-1.075,3.563-1.075c2.022,0,3.67,0.85,4.944,2.55
	c1.274,1.701,1.911,4.122,1.911,7.264c0,3.176-0.674,5.658-2.022,7.444c-1.184,1.58-2.791,2.37-4.821,2.37
	C105.301,55.173,103.686,54.392,102.502,52.83L102.502,52.83z M103.42,45.346c0,2.184,0.376,3.822,1.13,4.914
	c0.753,1.092,1.688,1.638,2.803,1.638c1.123,0,2.053-0.542,2.791-1.625c0.738-1.083,1.107-2.747,1.107-4.991
	c0-2.201-0.359-3.828-1.078-4.881c-0.718-1.053-1.658-1.58-2.82-1.58s-2.108,0.531-2.838,1.593
	C103.785,41.475,103.42,43.119,103.42,45.346z"/>
<path fill="#34347B" d="M116.401,35.869h2.846v10.28c0,1.597,0.035,2.637,0.106,3.121c0.125,0.837,0.426,1.484,0.901,1.942
	c0.475,0.458,1.102,0.686,1.879,0.686c0.66,0,1.198-0.162,1.614-0.485s0.701-0.772,0.854-1.347c0.153-0.574,0.229-1.806,0.229-3.696
	v-10.5h2.846v9.969c0,2.546-0.124,4.387-0.371,5.522c-0.247,1.135-0.803,2.054-1.669,2.758s-2.009,1.055-3.428,1.055
	c-1.474,0-2.624-0.292-3.451-0.874s-1.427-1.402-1.799-2.46c-0.373-1.057-0.559-3.006-0.559-5.846V35.869z"/>
<path fill="#34347B" d="M130.758,54.85V36.024h2.846v15.614h7.102v3.211H130.758z"/>
<path fill="#34347B" d="M142.752,54.85v-18.98h10.488v3.211h-7.643v4.208h7.103v3.198h-7.103v5.153h7.902v3.211H142.752z
	 M144.646,34.561l2.026-3.819h2.509l2.002,3.819h-2.175l-1.123-1.929l-1.041,1.929H144.646z"/>
<path fill="#34347B" d="M155.875,54.85v-18.98h4.268l2.57,12.96l2.55-12.96h4.288v18.98h-2.658V39.896l-2.818,14.954h-2.746
	l-2.797-14.954V54.85H155.875z"/>
<path fill="#34347B" d="M172.372,54.85v-18.98h10.489v3.211h-7.643v4.208h7.102v3.198h-7.102v5.153h7.902v3.211H172.372z"/>
<path fill="#34347B" d="M9.377,32.085V13.652h2.476l5.162,12.31v-12.31h2.372v18.433h-2.56l-5.078-12.021v12.021H9.377z"/>
<path fill="#34347B" d="M27.717,32.085h-2.413V18.77c-0.902,1.215-1.944,2.108-3.126,2.678v-3.206
	c0.671-0.326,1.367-0.909,2.088-1.75c0.72-0.84,1.221-1.808,1.5-2.903h1.951V32.085z"/>
<path fill="#34347B" d="M36.549,32.085h-2.413V18.77c-0.902,1.215-1.945,2.108-3.126,2.678v-3.206
	c0.671-0.326,1.367-0.909,2.088-1.75c0.72-0.84,1.22-1.808,1.5-2.903h1.952V32.085z"/>
<path fill="#34347B" d="M40.075,27.207l2.339-0.415c0.063,0.868,0.263,1.531,0.6,1.99c0.336,0.459,0.733,0.688,1.189,0.688
	c0.498,0,0.919-0.272,1.263-0.817s0.516-1.299,0.516-2.263c0-0.897-0.165-1.601-0.495-2.112s-0.73-0.767-1.201-0.767
	c-0.309,0-0.677,0.088-1.105,0.264l0.262-2.879c0.625,0.017,1.122-0.184,1.487-0.602c0.359-0.417,0.538-1.007,0.538-1.768
	c0-0.635-0.13-1.133-0.39-1.492s-0.593-0.539-1-0.539c-0.407,0-0.76,0.208-1.059,0.623s-0.476,1.029-0.531,1.842l-2.235-0.553
	c0.231-1.685,0.683-2.909,1.355-3.671c0.673-0.763,1.52-1.144,2.543-1.144c1.148,0,2.061,0.49,2.736,1.469
	c0.676,0.979,1.014,2.063,1.014,3.252c0,0.804-0.152,1.528-0.457,2.172c-0.304,0.645-0.761,1.209-1.369,1.695
	c0.707,0.226,1.282,0.725,1.726,1.496c0.444,0.771,0.666,1.735,0.666,2.892c0,1.685-0.418,3.079-1.255,4.181
	c-0.837,1.103-1.833,1.654-2.988,1.654c-1.107,0-2.043-0.464-2.81-1.393C40.647,30.079,40.2,28.813,40.075,27.207z"/>
</svg>
