<?xml version="1.0" encoding="utf-8"?>
<!-- Generator: Adobe Illustrator 13.0.0, SVG Export Plug-In . SVG Version: 6.00 Build 14948)  -->
<!DOCTYPE svg PUBLIC "-//W3C//DTD SVG 1.1//EN" "http://www.w3.org/Graphics/SVG/1.1/DTD/svg11.dtd">
<svg version="1.1" id="Layer_1" xmlns="http://www.w3.org/2000/svg" xmlns:xlink="http://www.w3.org/1999/xlink" x="0px" y="0px"
	 width="205px" height="72px" viewBox="0 0 205 72" enable-background="new 0 0 205 72" xml:space="preserve">
<path fill="#34347B" d="M203.352,33.474l-0.746-0.456c-0.252-0.125-0.52-0.232-0.799-0.32l0.154,0.036l0.561,0.221L149.811,0.799
	l-0.52-0.669h-0.579L148.5,0l0.001,0.13H0v71.537h149.292l0.526-0.671l51.918-31.374c0.152-0.047,0.302-0.097,0.445-0.154
	l1.451-0.876c0.737-0.656,1.199-1.5,1.199-2.436C204.833,35.102,204.264,34.153,203.352,33.474z"/>
<polygon fill="#F4F3D1" points="148.734,66.172 194.084,35.758 147.762,4.397 147.75,3.736 146.784,3.736 146.501,3.544 
	146.503,3.736 3.452,3.736 3.452,67.177 147.186,67.177 147.186,67.211 147.236,67.177 148.75,67.177 "/>
<g>
	<g enable-background="new    ">
		<path fill="#34347B" d="M36.474,50.355h-5.063l-2.026-6.843h-9.259l-1.913,6.843H13.25l9.007-30.212h4.946L36.474,50.355z
			 M27.882,38.402l-3.193-11.211l-3.133,11.211H27.882z"/>
		<path fill="#34347B" d="M38.976,50.355V20.143h4.541l9.466,20.175V20.143h4.349v30.212h-4.695l-9.313-19.702v19.702H38.976z"/>
		<path fill="#34347B" d="M73.012,39.268v-5.11h10.063v12.035c-1.014,1.277-2.45,2.377-4.31,3.297
			c-1.86,0.921-3.726,1.381-5.599,1.381c-2.283,0-4.297-0.601-6.042-1.803c-1.745-1.202-3.126-3.002-4.146-5.399
			c-1.02-2.397-1.529-5.218-1.529-8.46c0-3.325,0.516-6.168,1.549-8.532c1.032-2.363,2.373-4.128,4.021-5.296
			c1.648-1.168,3.621-1.752,5.917-1.752c2.758,0,4.967,0.752,6.628,2.257s2.729,3.713,3.204,6.625l-4.618,1.133
			c-0.346-1.552-0.981-2.741-1.905-3.565c-0.923-0.824-2.027-1.237-3.31-1.237c-1.988,0-3.598,0.828-4.829,2.483
			c-1.231,1.656-1.847,4.181-1.847,7.574c0,3.641,0.667,6.409,2.001,8.305c1.142,1.635,2.687,2.452,4.637,2.452
			c0.911,0,1.856-0.229,2.838-0.688c0.981-0.459,1.856-1.086,2.626-1.88v-3.821H73.012z"/>
		<path fill="#34347B" d="M87.404,50.355V20.143h17.163v5.111H92.06v6.698h11.622v5.09H92.06v8.202h12.93v5.111H87.404z"/>
		<path fill="#34347B" d="M108.953,50.355V20.143h9.832c2.514,0,4.311,0.271,5.388,0.814c1.077,0.543,1.962,1.484,2.655,2.824
			c0.692,1.339,1.039,2.944,1.039,4.812c0,2.363-0.529,4.266-1.588,5.708c-1.058,1.443-2.563,2.349-4.512,2.72
			c1,0.77,1.828,1.611,2.482,2.524c0.654,0.914,1.545,2.553,2.674,4.915l2.81,5.895h-5.571l-3.379-6.574
			c-1.217-2.377-2.043-3.864-2.479-4.462c-0.437-0.598-0.898-1.01-1.386-1.236s-1.27-0.34-2.347-0.34h-0.963v12.612H108.953z
			 M113.609,32.92h3.464c2.116,0,3.463-0.099,4.04-0.299c0.578-0.199,1.045-0.601,1.404-1.206c0.359-0.604,0.539-1.408,0.539-2.411
			c0-0.961-0.18-1.734-0.539-2.318s-0.846-0.986-1.462-1.206c-0.437-0.151-1.7-0.227-3.79-0.227h-3.656V32.92z"/>
		<path fill="#34347B" d="M131.08,40.504l4.561-0.576c0.512,3.86,2.193,5.791,5.041,5.791c1.41,0,2.52-0.396,3.328-1.185
			c0.809-0.79,1.212-1.769,1.212-2.936c0-0.687-0.142-1.271-0.423-1.751c-0.283-0.48-0.713-0.875-1.289-1.185
			c-0.578-0.31-1.977-0.827-4.195-1.554c-1.988-0.645-3.443-1.344-4.367-2.099s-1.658-1.747-2.203-2.976
			c-0.545-1.229-0.817-2.55-0.817-3.964c0-1.647,0.349-3.13,1.048-4.448s1.665-2.313,2.896-2.986c1.23-0.673,2.751-1.009,4.56-1.009
			c2.72,0,4.843,0.79,6.368,2.37c1.527,1.58,2.335,3.84,2.425,6.78l-4.675,0.268c-0.205-1.621-0.648-2.754-1.328-3.4
			c-0.68-0.646-1.648-0.968-2.905-0.968s-2.226,0.281-2.905,0.842s-1.02,1.26-1.02,2.096c0,0.822,0.309,1.513,0.926,2.075
			c0.617,0.562,2.035,1.179,4.254,1.853c2.346,0.729,4.042,1.495,5.087,2.299c1.044,0.804,1.843,1.84,2.394,3.111
			c0.552,1.271,0.827,2.813,0.827,4.626c0,2.623-0.753,4.828-2.261,6.614c-1.508,1.785-3.864,2.678-7.07,2.678
			C134.877,50.87,131.721,47.415,131.08,40.504z"/>
	</g>
</g>
</svg>
