<?xml version="1.0" encoding="utf-8"?>
<!-- Generator: Adobe Illustrator 13.0.0, SVG Export Plug-In  -->
<!DOCTYPE svg PUBLIC "-//W3C//DTD SVG 1.1//EN" "http://www.w3.org/Graphics/SVG/1.1/DTD/svg11.dtd" [
	<!ENTITY ns_flows "http://ns.adobe.com/Flows/1.0/">
]>
<svg version="1.1"
	 xmlns="http://www.w3.org/2000/svg" xmlns:xlink="http://www.w3.org/1999/xlink" xmlns:a="http://ns.adobe.com/AdobeSVGViewerExtensions/3.0/"
	 x="0px" y="0px" width="205px" height="105px" viewBox="-0.038 -0.195 205 105" enable-background="new -0.038 -0.195 205 105"
	 xml:space="preserve">
<defs>
</defs>
<polygon fill="#FFFFFF" points="17.962,104.082 17.963,104.086 17.963,104.078 "/>
<path fill="#34347B" d="M203.353,43.049l-0.747-0.586c-0.251-0.161-0.52-0.298-0.799-0.412l0.154,0.046l0.561,0.284L149.81,1.028
	l-0.519-0.861h-0.579L148.5,0l0.001,0.167H0v92h149.292l0.527-0.863l51.918-40.349c0.151-0.061,0.3-0.125,0.445-0.198l1.451-1.128
	c0.738-0.843,1.2-1.929,1.2-3.132C204.833,45.142,204.263,43.923,203.353,43.049z"/>
<polygon fill="#F4F3D1" points="148.734,86.337 194.084,46.131 147.761,4.672 147.75,3.797 146.784,3.797 146.501,3.544 
	146.503,3.797 3.452,3.797 3.452,87.667 147.185,87.667 147.186,87.711 147.236,87.667 148.75,87.667 "/>
<path fill="#34347B" d="M41.531,73.406l3.104,1.161c-0.484,2.093-1.29,3.622-2.417,4.587c-1.127,0.966-2.514,1.448-4.161,1.448
	c-2.069,0-3.746-0.77-5.032-2.31c-1.479-1.778-2.219-4.177-2.219-7.197c0-3.19,0.745-5.687,2.234-7.49
	c1.296-1.565,3.036-2.348,5.222-2.348c1.78,0,3.27,0.587,4.468,1.761c0.854,0.833,1.48,2.071,1.877,3.713l-3.169,0.894
	c-0.203-1.012-0.606-1.789-1.211-2.329c-0.604-0.54-1.316-0.81-2.137-0.81c-1.173,0-2.13,0.494-2.871,1.48
	c-0.741,0.987-1.111,2.616-1.111,4.888c0,2.356,0.361,4.032,1.083,5.027c0.722,0.995,1.66,1.493,2.813,1.493
	c0.845,0,1.576-0.317,2.192-0.951S41.258,74.784,41.531,73.406z"/>
<path fill="#34347B" d="M47.382,80.284V61.577h3.196v7.363h6.3v-7.363h3.196v18.707h-3.196v-8.18h-6.3v8.18H47.382z"/>
<path fill="#34347B" d="M65,78.293c-1.515-1.761-2.271-4.177-2.271-7.248c0-2.229,0.341-4.064,1.023-5.506
	c0.682-1.442,1.574-2.516,2.674-3.222c1.101-0.706,2.435-1.059,4.002-1.059c2.271,0,4.123,0.838,5.554,2.514
	c1.431,1.676,2.146,4.062,2.146,7.158c0,3.131-0.757,5.576-2.271,7.337c-1.33,1.557-3.135,2.335-5.415,2.335
	C68.144,80.603,66.33,79.833,65,78.293L65,78.293z M66.031,70.917c0,2.152,0.423,3.767,1.27,4.843
	c0.847,1.076,1.896,1.614,3.148,1.614c1.261,0,2.306-0.534,3.135-1.602c0.829-1.067,1.243-2.707,1.243-4.919
	c0-2.169-0.403-3.773-1.21-4.811c-0.807-1.038-1.863-1.557-3.167-1.557c-1.305,0-2.368,0.523-3.188,1.569
	C66.441,67.102,66.031,68.723,66.031,70.917z"/>
<path fill="#34347B" d="M80.73,80.284V61.73h3.196v15.389h7.978v3.165H80.73z"/>
<path fill="#34347B" d="M94.202,80.284V61.577h11.781v3.165h-8.584v4.147h7.977v3.152h-7.977v5.079h8.875v3.165H94.202z"/>
<path fill="#34347B" d="M112.56,80.284V64.742h-4.715v-3.165h12.613v3.165h-4.702v15.542H112.56z"/>
<path fill="#34347B" d="M34.542,53.941c-4.152,0-6.462-2.045-6.932-6.137l3.339-0.342c0.375,2.286,1.606,3.428,3.691,3.428
	c1.033,0,1.846-0.233,2.438-0.701c0.592-0.467,0.888-1.046,0.888-1.738c0-0.406-0.104-0.752-0.31-1.036
	c-0.207-0.285-0.521-0.518-0.944-0.701c-0.423-0.183-1.447-0.49-3.072-0.92c-1.456-0.381-2.522-0.796-3.198-1.243
	c-0.676-0.447-1.214-1.034-1.613-1.762c-0.399-0.727-0.599-1.509-0.599-2.346c0-0.976,0.256-1.853,0.768-2.633
	c0.512-0.78,1.219-1.369,2.121-1.768c0.902-0.398,2.015-0.597,3.339-0.597c1.991,0,3.546,0.468,4.664,1.403
	c1.118,0.936,1.709,2.273,1.775,4.014l-3.424,0.159c-0.15-0.959-0.475-1.63-0.972-2.013c-0.498-0.382-1.207-0.573-2.127-0.573
	c-0.921,0-1.63,0.167-2.127,0.499c-0.498,0.332-0.747,0.746-0.747,1.24c0,0.486,0.226,0.896,0.678,1.229
	c0.452,0.333,1.49,0.698,3.115,1.097c1.718,0.431,2.96,0.885,3.725,1.36c0.765,0.476,1.35,1.09,1.753,1.842
	c0.404,0.752,0.605,1.665,0.605,2.738c0,1.554-0.552,2.858-1.656,3.916C38.616,53.413,36.89,53.941,34.542,53.941L34.542,53.941z"/>
<path fill="#34347B" d="M59.537,53.636H55.83l-1.483-4.05h-6.78l-1.4,4.05h-3.635l6.596-17.885h3.622L59.537,53.636z M53.246,46.56
	l-2.338-6.637l-2.295,6.637H53.246z"/>
<path fill="#34347B" d="M61.298,35.751h3.41v9.687c0,1.505,0.042,2.485,0.127,2.94c0.15,0.789,0.51,1.399,1.08,1.83
	c0.569,0.431,1.32,0.646,2.252,0.646c0.791,0,1.436-0.152,1.934-0.458c0.499-0.305,0.84-0.728,1.024-1.269s0.275-1.702,0.275-3.483
	v-9.895h3.41v9.394c0,2.399-0.148,4.134-0.444,5.203c-0.296,1.07-0.963,1.936-2,2.599c-1.038,0.663-2.407,0.995-4.107,0.995
	c-1.766,0-3.145-0.275-4.135-0.824c-0.991-0.549-1.709-1.321-2.156-2.318c-0.446-0.996-0.669-2.833-0.669-5.508V35.751z"/>
<path fill="#34347B" d="M78.361,53.636V35.751h5.113l3.08,12.212l3.055-12.212h5.138v17.885h-3.184V39.545l-3.376,14.091h-3.29
	l-3.351-14.091v14.091H78.361z"/>
<path fill="#34347B" d="M98.086,35.751h3.41v9.687c0,1.505,0.042,2.485,0.127,2.94c0.151,0.789,0.511,1.399,1.08,1.83
	c0.57,0.431,1.32,0.646,2.252,0.646c0.791,0,1.435-0.152,1.934-0.458c0.499-0.305,0.84-0.728,1.023-1.269
	c0.184-0.541,0.276-1.702,0.276-3.483v-9.895h3.41v9.394c0,2.399-0.148,4.134-0.444,5.203c-0.296,1.07-0.963,1.936-2.001,2.599
	c-1.038,0.663-2.407,0.995-4.107,0.995c-1.766,0-3.145-0.275-4.135-0.824c-0.991-0.549-1.71-1.321-2.156-2.318
	c-0.446-0.996-0.669-2.833-0.669-5.508V35.751z"/>
<path fill="#34347B" d="M115.205,53.636V35.751h7.2c1.841,0,3.156,0.161,3.945,0.482s1.437,0.878,1.944,1.671
	s0.761,1.743,0.761,2.849c0,1.399-0.388,2.525-1.163,3.379s-1.876,1.391-3.304,1.61c0.733,0.456,1.339,0.954,1.818,1.495
	c0.479,0.541,1.132,1.511,1.958,2.91l2.057,3.489h-4.08l-2.475-3.892c-0.891-1.407-1.496-2.288-1.815-2.642
	c-0.319-0.354-0.657-0.598-1.014-0.732c-0.357-0.134-0.93-0.201-1.719-0.201h-0.704v7.466H115.205z M118.615,43.315h2.536
	c1.55,0,2.536-0.059,2.958-0.177c0.423-0.118,0.766-0.355,1.029-0.714c0.263-0.357,0.395-0.833,0.395-1.427
	c0-0.569-0.132-1.027-0.395-1.373c-0.263-0.346-0.62-0.583-1.071-0.713c-0.32-0.089-1.245-0.134-2.776-0.134h-2.677V43.315z"/>
<path fill="#34347B" d="M24.213,29.815V10.174h3.682v16.291h9.189v3.35H24.213z"/>
<path fill="#34347B" d="M39.732,29.815V10.013h13.571v3.35h-9.889v4.39h9.189v3.336h-9.189v5.376h10.224v3.35H39.732z"/>
<path fill="#34347B" d="M63.816,29.815V10.013h5.522l3.325,13.521l3.299-13.521h5.548v19.802h-3.438V14.213l-3.646,15.602h-3.552
	l-3.619-15.602v15.602H63.816z"/>
<path fill="#34347B" d="M101.655,29.815h-4.003l-1.602-4.484h-7.322l-1.512,4.484h-3.925l7.122-19.802h3.911L101.655,29.815z
	 M94.861,21.98l-2.525-7.348l-2.478,7.348H94.861z"/>
<path fill="#34347B" d="M103.633,29.815V10.013h3.591l7.485,13.224V10.013h3.438v19.802h-3.712l-7.364-12.914v12.914H103.633z"/>
<path fill="#34347B" d="M128.584,30.153c-4.483,0-6.979-2.265-7.485-6.794l3.606-0.378c0.405,2.531,1.734,3.796,3.986,3.796
	c1.116,0,1.993-0.259,2.632-0.776s0.958-1.159,0.958-1.924c0-0.45-0.112-0.833-0.335-1.147s-0.563-0.574-1.019-0.776
	s-1.562-0.542-3.317-1.019c-1.572-0.422-2.723-0.881-3.454-1.376c-0.73-0.495-1.311-1.145-1.742-1.95
	c-0.431-0.805-0.646-1.671-0.646-2.598c0-1.08,0.276-2.051,0.829-2.915s1.316-1.516,2.29-1.957c0.974-0.441,2.175-0.662,3.605-0.662
	c2.15,0,3.829,0.518,5.036,1.553c1.207,1.036,1.846,2.517,1.917,4.444l-3.697,0.175c-0.162-1.062-0.512-1.805-1.05-2.229
	s-1.303-0.635-2.297-0.635s-1.76,0.184-2.297,0.552c-0.538,0.368-0.806,0.826-0.806,1.374c0,0.539,0.244,0.992,0.732,1.36
	c0.488,0.368,1.609,0.773,3.364,1.214c1.855,0.478,3.196,0.979,4.022,1.506s1.457,1.207,1.893,2.039
	c0.436,0.833,0.654,1.844,0.654,3.032c0,1.72-0.596,3.165-1.788,4.335S131.12,30.153,128.584,30.153L128.584,30.153z"/>
</svg>
