<?xml version="1.0" encoding="UTF-8" standalone="no"?>
<!-- Created with Inkscape (http://www.inkscape.org/) -->

<svg
   xmlns:dc="http://purl.org/dc/elements/1.1/"
   xmlns:cc="http://creativecommons.org/ns#"
   xmlns:rdf="http://www.w3.org/1999/02/22-rdf-syntax-ns#"
   xmlns:svg="http://www.w3.org/2000/svg"
   xmlns="http://www.w3.org/2000/svg"
   xmlns:sodipodi="http://sodipodi.sourceforge.net/DTD/sodipodi-0.dtd"
   xmlns:inkscape="http://www.inkscape.org/namespaces/inkscape"
   width="826.25"
   height="526.84375"
   id="svg2"
   version="1.1"
   inkscape:version="0.48.4 r9939"
   sodipodi:docname="D31b.svg">
  <defs
     id="defs4" />
  <sodipodi:namedview
     id="base"
     pagecolor="#ffffff"
     bordercolor="#666666"
     borderopacity="1.0"
     inkscape:pageopacity="0.0"
     inkscape:pageshadow="2"
     inkscape:zoom="0.49497475"
     inkscape:cx="411.11645"
     inkscape:cy="266.58019"
     inkscape:document-units="px"
     inkscape:current-layer="layer1"
     showgrid="false"
     inkscape:snap-bbox="true"
     inkscape:bbox-paths="true"
     inkscape:bbox-nodes="true"
     inkscape:snap-bbox-edge-midpoints="true"
     inkscape:snap-bbox-midpoints="true"
     inkscape:object-paths="true"
     inkscape:object-nodes="true"
     inkscape:snap-intersection-paths="true"
     inkscape:snap-smooth-nodes="true"
     inkscape:snap-midpoints="true"
     inkscape:snap-object-midpoints="true"
     inkscape:snap-center="true"
     inkscape:snap-page="true"
     showguides="true"
     inkscape:guide-bbox="true"
     fit-margin-top="0"
     fit-margin-left="0"
     fit-margin-right="0"
     fit-margin-bottom="0"
     inkscape:window-width="1366"
     inkscape:window-height="745"
     inkscape:window-x="-8"
     inkscape:window-y="-8"
     inkscape:window-maximized="1">
    <sodipodi:guide
       orientation="0,1"
       position="205.54556,37.839317"
       id="guide3810" />
    <sodipodi:guide
       orientation="1,0"
       position="0.006301,342.47712"
       id="guide3860" />
  </sodipodi:namedview>
  <metadata
     id="metadata7">
    <rdf:RDF>
      <cc:Work
         rdf:about="">
        <dc:format>image/svg+xml</dc:format>
        <dc:type
           rdf:resource="http://purl.org/dc/dcmitype/StillImage" />
        <dc:title />
      </cc:Work>
    </rdf:RDF>
  </metadata>
  <g
     inkscape:label="Calque 1"
     inkscape:groupmode="layer"
     id="layer1"
     transform="translate(61.09375,737.71875)">
    <path
       style="fill:#ffffff;fill-opacity:1;fill-rule:nonzero;stroke:#000000;stroke-width:4.86689234;stroke-miterlimit:4;stroke-opacity:1"
       d="m -28.989082,-452.15897 762.054492,0 c 16.43437,0 29.66493,13.23056 29.66493,29.66492 l 0,179.53018 c 0,16.43437 -13.23056,29.66492 -29.66493,29.66492 l -762.054492,0 c -16.434366,0 -29.664921,-13.23055 -29.664921,-29.66492 l 0,-179.53018 c 0,-16.43436 13.230555,-29.66492 29.664921,-29.66492 z"
       id="rect3838-7" />
    <path
       inkscape:connector-curvature="0"
       id="path3033"
       style="font-size:93.65122223px;font-style:normal;font-variant:normal;font-weight:normal;font-stretch:normal;text-align:center;line-height:125%;letter-spacing:0px;word-spacing:0px;text-anchor:middle;fill:#000000;fill-opacity:1;stroke:none;font-family:Caracteres L1;-inkscape-font-specification:Caracteres L1"
       d="m -12.800882,-363.62581 0,-0.0915 c -2e-6,-0.33533 0.35058,-0.56397 1.051747,-0.68593 5.3959115,-1.73765 8.9017317,-2.98755 10.5174715,-3.7497 0.82309167,1.12798 1.90532314,2.14924 3.2466977,3.06378 2.1644457,1.2804 4.4813356,2.05778 6.9506766,2.33214 2.6217192,0.061 4.2526882,1e-5 4.8929102,-0.18292 3.018025,-0.85357 4.877634,-1.72241 5.578833,-2.6065 0.701129,-0.60969 1.310837,-2.08823 1.829125,-4.43563 0.121905,-0.91454 -3.6e-5,-1.9358 -0.365825,-3.06378 -0.457317,-0.76211 -0.945083,-1.40231 -1.4633,-1.92058 l -1.554757,-1.18894 -1.737669,-0.77737 c -9.6639009,-3.01803 -14.9836021,-4.78618 -15.95911925,-5.30447 -4.48136825,-1.7986 -7.81951885,-4.77093 -10.01446175,-8.91698 -1.432819,-2.77413 -2.073012,-6.14277 -1.920582,-10.10592 0.579219,-4.93859 2.606498,-8.85596 6.0818424,-11.75213 3.9021208,-2.83508 7.9719208,-4.37459 12.2094122,-4.61855 l 1.1889316,0 c 3.0180308,7e-5 5.5178328,0.22871 7.4994138,0.68593 4.024042,1.12802 7.164037,2.69802 9.419996,4.70999 2.25588,1.85968 4.115489,4.38996 5.578833,7.59088 l -0.137184,0.503 -9.419996,4.52709 -0.457282,-0.22864 c -0.579258,-1.85956 -2.210226,-3.36859 -4.89291,-4.52709 -3.018085,-1.1279 -6.5543904,-1.15839 -10.6089278,-0.0915 -1.7376874,0.57927 -2.9571031,1.32617 -3.6582509,2.24068 -0.24389939,0.24393 -0.56399602,1.00607 -0.96029082,2.2864 -0.0609861,1.49384 -1.532e-5,2.36267 0.18291255,2.60651 0.39629461,1.03655 1.18891487,1.96635 2.37786307,2.78941 l 1.1889315,0.50301 c 8.6578324,2.56082 14.5262714,4.42043 17.6053324,5.57884 2.652192,1.21945 4.679471,2.56081 6.081842,4.02407 l 2.560776,3.47534 c 1.890049,3.14003 2.896067,6.56963 3.018057,10.28883 0.03044,0.2439 0.04568,0.53352 0.04573,0.86883 -4.9e-5,1.18895 -0.182961,2.78944 -0.548738,4.80146 -0.762183,2.83516 -1.676744,4.9234 -2.743688,6.26475 -1.829169,2.25593 -3.155283,3.61253 -3.978348,4.06981 -4.481394,3.07903 -9.099931,4.74048 -13.855625,4.98436 l -4.1612604,0 c -3.1095332,-0.30485 -5.7312771,-0.91456 -7.86523939,-1.82912 -3.41437931,-1.58524 -6.17330741,-3.35339 -8.27679261,-5.30446 -1.7376746,-1.58524 -3.2467016,-3.8564 -4.5270856,-6.8135 z" />
    <path
       inkscape:connector-curvature="0"
       id="path3036"
       style="font-size:56.92263794px;font-style:normal;font-variant:normal;font-weight:normal;font-stretch:normal;text-align:center;line-height:125%;letter-spacing:0px;word-spacing:0px;text-anchor:middle;fill:#000000;fill-opacity:1;stroke:none;font-family:Caracteres L1;-inkscape-font-specification:Caracteres L1"
       d="m 78.456916,-414.66199 0,7.83798 -8.143717,0 0,32.93619 -7.560038,0 0,-33.01957 -8.699603,0 0,-7.7546 z" />
    <path
       inkscape:connector-curvature="0"
       id="path3039"
       style="font-size:97.02967072px;font-style:normal;font-variant:normal;font-weight:normal;font-stretch:normal;text-align:center;line-height:125%;letter-spacing:0px;word-spacing:0px;text-anchor:middle;fill:#000000;fill-opacity:1;stroke:none;font-family:Caracteres L1;-inkscape-font-specification:Caracteres L1"
       d="m -0.66164991,-323.3343 0.0473778,57.13759 26.86319511,0 -0.04738,12.41297 -39.986837,0 0,-69.55056 z" />
    <path
       inkscape:connector-curvature="0"
       id="path3041"
       style="font-size:97.02967072px;font-style:normal;font-variant:normal;font-weight:normal;font-stretch:normal;text-align:center;line-height:125%;letter-spacing:0px;word-spacing:0px;text-anchor:middle;fill:#000000;fill-opacity:1;stroke:none;font-family:Caracteres L1;-inkscape-font-specification:Caracteres L1"
       d="m 94.56766,-323.3343 17.9088,69.40843 -13.597423,0 -2.984799,-11.79706 -19.187997,0 -3.032177,11.79706 -13.739553,0 17.719286,-69.40843 z m -15.255641,44.39297 13.692175,0 -6.632888,-27.10009 z" />
    <path
       inkscape:connector-curvature="0"
       id="path3043"
       style="font-size:97.02967072px;font-style:normal;font-variant:normal;font-weight:normal;font-stretch:normal;text-align:center;line-height:125%;letter-spacing:0px;word-spacing:0px;text-anchor:middle;fill:#000000;fill-opacity:1;stroke:none;font-family:Caracteres L1;-inkscape-font-specification:Caracteres L1"
       d="m 175.4889,-324.09235 c 7.64357,1.16872 13.29731,5.6854 16.96124,13.55005 3.12688,5.81172 4.69034,12.94996 4.6904,21.41475 l 0,0.8528 c -6e-5,10.58106 -2.57425,19.58282 -7.72258,27.00533 -3.66392,4.99046 -8.84389,7.78574 -15.53991,8.38586 -0.6949,0.0632 -1.37398,0.0947 -2.03724,0.0948 -6.94876,-1e-5 -12.77622,-2.93742 -17.4824,-8.81227 -4.86412,-7.83311 -7.32776,-15.87153 -7.39093,-24.11528 -0.0316,-0.69484 -0.0474,-1.38972 -0.0474,-2.08463 0,-11.14952 2.47943,-20.37238 7.43831,-27.66861 3.31643,-3.97967 6.775,-6.52227 10.37573,-7.62782 2.49521,-0.78956 4.99043,-1.18438 7.48569,-1.18445 1.10545,7e-5 2.19514,0.0632 3.26907,0.18951 z m -3.64809,59.17484 c 3.66385,-0.1895 6.75919,-2.70052 9.28604,-7.53307 1.8319,-3.22166 2.98476,-7.95944 3.45858,-14.21333 0.0947,-7.95942 -1.31083,-14.48176 -4.21662,-19.56702 -2.36893,-3.53748 -4.99049,-5.51155 -7.86471,-5.92222 -3.79025,0.18957 -6.94877,2.669 -9.47556,7.43831 -1.80037,3.34808 -2.96902,8.14902 -3.50595,14.40284 -0.0632,7.9595 1.37394,14.46604 4.31137,19.51964 2.33729,3.53756 5.00623,5.49584 8.00685,5.87485 z m 12.31822,1.84773 7.72257,14.35546 -15.35039,0 -9.14391,-14.35546 z" />
    <path
       inkscape:connector-curvature="0"
       id="path3045"
       style="font-size:97.02967072px;font-style:normal;font-variant:normal;font-weight:normal;font-stretch:normal;text-align:center;line-height:125%;letter-spacing:0px;word-spacing:0px;text-anchor:middle;fill:#000000;fill-opacity:1;stroke:none;font-family:Caracteres L1;-inkscape-font-specification:Caracteres L1"
       d="m 247.31359,-323.14479 0,46.99875 c 0.6001,6.0012 3.97971,9.34922 10.13884,10.04408 6.06432,-0.66327 9.47552,-3.96392 10.2336,-9.90195 l 0,-47.14088 13.40791,0 0,50.64683 c -1.16871,6.19071 -4.09033,11.00745 -8.76489,14.45022 -4.16928,2.93743 -8.43328,4.4851 -12.792,4.64302 -0.6949,0.0632 -1.37398,0.0948 -2.03724,0.0948 -6.47499,0 -11.82867,-1.87932 -16.06107,-5.63795 -4.83254,-4.6746 -7.39093,-9.44396 -7.6752,-14.30809 l 0,-49.88879 z" />
    <path
       inkscape:connector-curvature="0"
       id="path3047"
       style="font-size:97.02967072px;font-style:normal;font-variant:normal;font-weight:normal;font-stretch:normal;text-align:center;line-height:125%;letter-spacing:0px;word-spacing:0px;text-anchor:middle;fill:#000000;fill-opacity:1;stroke:none;font-family:Caracteres L1;-inkscape-font-specification:Caracteres L1"
       d="m 359.03036,-323.19217 0,12.69724 -28.71092,0 0,15.16089 21.03573,0 0,12.83937 -21.03573,0 0,15.87156 29.94275,0 0,12.83937 -43.30328,0 0.0474,-69.40843 z" />
    <path
       inkscape:connector-curvature="0"
       id="path3049"
       style="font-size:97.02967072px;font-style:normal;font-variant:normal;font-weight:normal;font-stretch:normal;text-align:center;line-height:125%;letter-spacing:0px;word-spacing:0px;text-anchor:middle;fill:#000000;fill-opacity:1;stroke:none;font-family:Caracteres L1;-inkscape-font-specification:Caracteres L1"
       d="m 410.29311,-323.23955 0,69.45581 -13.17102,0 0,-69.45581 z" />
    <path
       inkscape:connector-curvature="0"
       id="path3051"
       style="font-size:97.02967072px;font-style:normal;font-variant:normal;font-weight:normal;font-stretch:normal;text-align:center;line-height:125%;letter-spacing:0px;word-spacing:0px;text-anchor:middle;fill:#000000;fill-opacity:1;stroke:none;font-family:Caracteres L1;-inkscape-font-specification:Caracteres L1"
       d="m 461.17685,-323.3343 0.0474,57.13759 26.86319,0 -0.0474,12.41297 -39.98684,0 0,-69.55056 z" />
    <path
       inkscape:connector-curvature="0"
       id="path3053"
       style="font-size:97.02967072px;font-style:normal;font-variant:normal;font-weight:normal;font-stretch:normal;text-align:center;line-height:125%;letter-spacing:0px;word-spacing:0px;text-anchor:middle;fill:#000000;fill-opacity:1;stroke:none;font-family:Caracteres L1;-inkscape-font-specification:Caracteres L1"
       d="m 536.79178,-323.3343 0.0474,57.13759 26.86319,0 -0.0474,12.41297 -39.98684,0 0,-69.55056 z" />
    <path
       inkscape:connector-curvature="0"
       id="path3055"
       style="font-size:97.02967072px;font-style:normal;font-variant:normal;font-weight:normal;font-stretch:normal;text-align:center;line-height:125%;letter-spacing:0px;word-spacing:0px;text-anchor:middle;fill:#000000;fill-opacity:1;stroke:none;font-family:Caracteres L1;-inkscape-font-specification:Caracteres L1"
       d="m 640.6438,-323.19217 0,12.69724 -28.71093,0 0,15.16089 21.03573,0 0,12.83937 -21.03573,0 0,15.87156 29.94275,0 0,12.83937 -43.30328,0 0.0474,-69.40843 z" />
    <path
       style="fill:#ffffff;fill-opacity:1;fill-rule:nonzero;stroke:#000000;stroke-width:4.86689234;stroke-miterlimit:4;stroke-opacity:1"
       d="m -28.989082,-735.2818 762.054492,0 c 16.43437,0 29.66493,13.23056 29.66493,29.66492 l 0,179.53018 c 0,16.43436 -13.23056,29.66492 -29.66493,29.66492 l -762.054492,0 c -16.434366,0 -29.664921,-13.23056 -29.664921,-29.66492 l 0,-179.53018 c 0,-16.43436 13.230555,-29.66492 29.664921,-29.66492 z"
       id="rect3838" />
    <path
       style="fill:#000000;stroke:#000000;stroke-width:0.99943972px;stroke-linecap:butt;stroke-linejoin:miter;stroke-opacity:1"
       d="m 556.4781,-566.96897 80.0187,-73.63162 c 1.36243,-1.87113 2.53334,-3.0948 -0.33631,-4.6236 l -50.38796,-21.63785 c -8.29158,-4.0786 -4.93905,-9.39448 0.9515,-10.20999 l 124.30741,-17.53808 c 3.21851,0.005 7.36277,-1.44348 6.37659,8.57668 l -15.46796,123.10054 c -4.28097,8.84578 -8.04665,6.5393 -11.61675,0 l -22.22336,-51.46006 c -1.25045,-1.87806 -2.62262,-1.38539 -4.04061,0 l -72.73098,81.73068 z"
       id="path3784"
       inkscape:connector-curvature="0"
       sodipodi:nodetypes="ccccccccccccc" />
    <path
       style="fill:#ffff00;fill-opacity:1;fill-rule:nonzero;stroke:none"
       d="m -10.701526,-692.43048 286.428556,0 0,97.74751 -286.428556,0 z"
       id="rect3822" />
    <path
       inkscape:connector-curvature="0"
       id="path3059"
       style="font-size:94.21928406px;font-style:normal;font-variant:normal;font-weight:normal;font-stretch:normal;text-align:center;line-height:125%;letter-spacing:0px;word-spacing:0px;text-anchor:middle;fill:#000000;fill-opacity:1;stroke:none;font-family:Caracteres L1;-inkscape-font-specification:Caracteres L1"
       d="m 42.131317,-676.83372 c 4.418969,0.52118 8.170516,2.28373 11.254653,5.28767 3.084051,3.00407 5.316567,6.55983 6.697554,10.66729 0.644389,1.80859 1.120045,4.18421 1.42697,7.12687 l 0,20.69088 c -0.460362,6.98893 -2.662191,12.62911 -6.605492,16.92054 -3.943387,4.29145 -8.738309,6.5751 -14.38478,6.85098 l -26.698155,0 0.04604,-67.54423 z m -15.098267,54.25608 10.771325,0 c 2.178786,-0.33717 4.03538,-1.14181 5.569787,-2.41393 1.534343,-1.27209 2.838562,-3.5021 3.912661,-6.69005 0.583026,-1.96177 0.751807,-9.10396 0.506344,-21.42655 -1.442349,-6.37581 -4.771944,-10.03886 -9.988792,-10.98916 l -10.771325,0 z" />
    <path
       inkscape:connector-curvature="0"
       id="path3062"
       style="font-size:95.14464569px;font-style:normal;font-variant:normal;font-weight:normal;font-stretch:normal;text-align:center;line-height:125%;letter-spacing:0px;word-spacing:0px;text-anchor:middle;fill:#000000;fill-opacity:1;stroke:none;font-family:Caracteres L1;-inkscape-font-specification:Caracteres L1"
       d="m 113.47315,-677.6373 0,0.0928 c 1.76635,-0.18566 3.43974,-0.27853 5.02021,-0.27859 5.2061,6e-5 9.37411,1.00608 12.50403,3.01803 4.0595,2.63118 6.82526,5.86588 8.29728,9.70415 1.47193,3.83838 2.39385,8.3422 2.76576,13.51152 0.1549,2.13588 0.23237,4.31815 0.23242,6.54681 -5e-5,3.15736 -0.15499,6.42303 -0.46484,9.797 -0.52685,5.6956 -1.89036,10.67923 -4.09053,14.95089 -4.15256,6.50039 -9.73056,10.18393 -16.73402,11.05066 -0.58882,0.031 -1.14663,0.0464 -1.6734,0.0464 -13.51119,0 -21.676765,-5.43245 -24.49675,-16.29738 l 12.92238,-3.43593 0.74374,1.39294 c 1.48744,3.18831 4.64832,4.78244 9.4826,4.78243 4.24546,-0.21667 7.08094,-1.98106 8.50647,-5.29317 0.7437,-1.45483 1.50292,-5.85032 2.27769,-13.18649 -6.47672,4.48839 -13.34076,5.44797 -20.59215,2.87874 -6.84856,-2.87871 -11.016567,-7.28969 -12.504029,-13.23292 -0.278906,-1.7334 -0.418356,-3.40492 -0.418351,-5.01459 -5e-6,-5.32407 1.595923,-9.96719 4.78779,-13.92939 3.50173,-4.05494 7.93315,-6.42293 13.29425,-7.10399 z m 3.11438,27.95165 c 6.60061,0.24767 10.30379,-2.18223 11.10954,-7.28972 -0.093,-4.95262 -2.77355,-7.7385 -8.04163,-8.35764 -6.63165,-0.55712 -10.38131,1.71802 -11.24898,6.82541 -0.15496,5.29321 2.57206,8.23386 8.18107,8.82195 z" />
    <path
       inkscape:connector-curvature="0"
       id="path3064"
       style="font-size:95.14464569px;font-style:normal;font-variant:normal;font-weight:normal;font-stretch:normal;text-align:center;line-height:125%;letter-spacing:0px;word-spacing:0px;text-anchor:middle;fill:#000000;fill-opacity:1;stroke:none;font-family:Caracteres L1;-inkscape-font-specification:Caracteres L1"
       d="m 178.41044,-677.59088 c 3.06787,0.49535 6.46116,2.05853 10.17986,4.68956 1.11556,0.89774 2.33963,2.30616 3.67219,4.22526 l 1.62692,2.9716 0.60429,1.43937 -0.13946,0.13929 c 0.77468,2.10494 1.16205,4.11697 1.1621,6.03608 -0.18599,3.71455 -0.52687,6.1135 -1.02264,7.19686 -0.83675,2.22874 -1.58048,3.82287 -2.23121,4.78242 l -1.06912,1.53224 -2.37065,2.60015 -19.38357,19.269 27.09982,0 0,13.27935 -45.78615,0 0.0465,-13.41866 28.58729,-28.83384 c 0.89864,-1.08335 1.53392,-2.07389 1.90582,-2.97161 0.96061,-3.12632 0.51127,-5.75743 -1.34802,-7.89332 -1.70442,-1.64051 -4.10607,-2.4608 -7.20493,-2.46086 l -2.74252,0.37145 -1.25505,0.60361 -0.79022,0.0465 -1.71988,1.3465 -0.97616,1.16078 c -0.6198,1.11441 -1.03814,1.98112 -1.25504,2.60015 l -0.27891,1.6251 c -0.12397,0.34055 -0.20144,0.46436 -0.23241,0.37145 l -12.55052,0.0465 -0.0929,-0.32502 0.0929,-2.27513 0.18593,-0.2786 c 0.12395,-1.95005 0.75923,-4.13233 1.90582,-6.54681 l 2.13824,-3.57521 1.71988,-1.90369 0.27891,-0.0928 c 3.28481,-2.94059 6.9415,-4.76688 10.97008,-5.47889 2.35512,-0.40234 4.49336,-0.60354 6.4147,-0.60361 1.42547,7e-5 2.7115,0.10841 3.85812,0.32501 z" />
    <path
       inkscape:connector-curvature="0"
       id="path3066"
       style="font-size:95.14464569px;font-style:normal;font-variant:normal;font-weight:normal;font-stretch:normal;text-align:center;line-height:125%;letter-spacing:0px;word-spacing:0px;text-anchor:middle;fill:#000000;fill-opacity:1;stroke:none;font-family:Caracteres L1;-inkscape-font-specification:Caracteres L1"
       d="m 233.07491,-677.59088 c 3.06787,0.49535 6.46115,2.05853 10.17986,4.68956 1.11556,0.89774 2.33962,2.30616 3.67219,4.22526 l 1.62692,2.9716 0.60428,1.43937 -0.13945,0.13929 c 0.77468,2.10494 1.16204,4.11697 1.16209,6.03608 -0.18598,3.71455 -0.52686,6.1135 -1.02264,7.19686 -0.83675,2.22874 -1.58048,3.82287 -2.2312,4.78242 l -1.06912,1.53224 -2.37065,2.60015 -19.38358,19.269 27.09983,0 0,13.27935 -45.78615,0 0.0465,-13.41866 28.58729,-28.83384 c 0.89864,-1.08335 1.5339,-2.07389 1.90581,-2.97161 0.96062,-3.12632 0.51128,-5.75743 -1.34802,-7.89332 -1.70442,-1.64051 -4.10606,-2.4608 -7.20492,-2.46086 l -2.74253,0.37145 -1.25505,0.60361 -0.79021,0.0465 -1.71988,1.3465 -0.97616,1.16078 c -0.6198,1.11441 -1.03814,1.98112 -1.25506,2.60015 l -0.27889,1.6251 c -0.12397,0.34055 -0.20144,0.46436 -0.23242,0.37145 l -12.55051,0.0465 -0.093,-0.32502 0.093,-2.27513 0.18593,-0.2786 c 0.12395,-1.95005 0.75923,-4.13233 1.90582,-6.54681 l 2.13824,-3.57521 1.71988,-1.90369 0.2789,-0.0928 c 3.28482,-2.94059 6.94151,-4.76688 10.97008,-5.47889 2.35513,-0.40234 4.49337,-0.60354 6.41471,-0.60361 1.42546,7e-5 2.7115,0.10841 3.85812,0.32501 z" />
    <path
       inkscape:connector-curvature="0"
       id="path3070"
       style="font-size:94.90723419px;font-style:normal;font-variant:normal;font-weight:normal;font-stretch:normal;text-align:center;line-height:125%;letter-spacing:0px;word-spacing:0px;text-anchor:middle;fill:#000000;fill-opacity:1;stroke:none;font-family:Caracteres L1;-inkscape-font-specification:Caracteres L1"
       d="m 129.90085,-363.99821 0,-0.0927 c 0,-0.33982 0.35528,-0.57153 1.06585,-0.69512 5.46828,-1.76096 9.02112,-3.02762 10.65853,-3.8 0.83413,1.14311 1.93088,2.17807 3.29024,3.10488 2.19348,1.29757 4.54144,2.08538 7.0439,2.36341 2.65688,0.0618 4.30972,1e-5 4.95853,-0.18536 3.0585,-0.86503 4.94305,-1.74552 5.65365,-2.64147 0.71054,-0.61786 1.32842,-2.11624 1.85366,-4.49511 0.12354,-0.92681 -4e-5,-1.96177 -0.37073,-3.10488 -0.46345,-0.77233 -0.95776,-1.42111 -1.48293,-1.94634 l -1.57561,-1.20488 -1.76097,-0.7878 c -9.79351,-3.0585 -15.18456,-4.85037 -16.17316,-5.3756 -4.54147,-1.82273 -7.92439,-4.83492 -10.14877,-9.03658 -1.45203,-2.81134 -2.10081,-6.22515 -1.94634,-10.24146 0.58699,-5.00481 2.64146,-8.97472 6.16341,-11.90974 3.95446,-2.8731 8.07884,-4.43326 12.37316,-4.68049 l 1.20488,0 c 3.05851,7e-5 5.59183,0.23178 7.59999,0.69513 4.07801,1.14315 7.26012,2.7342 9.54634,4.77316 2.28613,1.88461 4.17068,4.44884 5.65365,7.69268 l -0.13903,0.50975 -9.54633,4.5878 -0.46341,-0.2317 c -0.58703,-1.8845 -2.23987,-3.41377 -4.95854,-4.5878 -3.05856,-1.14304 -6.64229,-1.17393 -10.75121,-0.0927 -1.76099,0.58705 -2.99676,1.34396 -3.70731,2.27073 -0.24717,0.24721 -0.57156,1.01957 -0.97317,2.31707 -0.0618,1.51387 -1e-5,2.39436 0.18537,2.64147 0.40161,1.05045 1.20486,1.99272 2.40975,2.82682 l 1.20488,0.50976 c 8.77395,2.59516 14.72109,4.47971 17.84145,5.65365 2.68776,1.23581 4.74223,2.59516 6.1634,4.07805 l 2.59512,3.52194 c 1.9154,3.18214 2.93491,6.65775 3.05854,10.42683 0.0308,0.24717 0.0463,0.54067 0.0463,0.88048 -5e-5,1.2049 -0.18541,2.82685 -0.5561,4.86585 -0.7724,2.87318 -1.69923,4.98944 -2.78048,6.34878 -1.8537,2.28618 -3.1976,3.66097 -4.03171,4.12438 -4.54149,3.12033 -9.22197,4.80406 -14.04145,5.05122 l -4.21707,0 c -3.15123,-0.30894 -5.80814,-0.92683 -7.97072,-1.85366 -3.46017,-1.6065 -6.2561,-3.39836 -8.3878,-5.3756 -1.76098,-1.6065 -3.29024,-3.90812 -4.5878,-6.90488 z" />
    <path
       inkscape:connector-curvature="0"
       id="path3072"
       style="font-size:94.90723419px;font-style:normal;font-variant:normal;font-weight:normal;font-stretch:normal;text-align:center;line-height:125%;letter-spacing:0px;word-spacing:0px;text-anchor:middle;fill:#000000;fill-opacity:1;stroke:none;font-family:Caracteres L1;-inkscape-font-specification:Caracteres L1"
       d="m 214.14956,-418.17133 17.51705,67.89019 -13.29998,0 -2.91951,-11.53902 -18.76828,0 -2.96585,11.53902 -13.43901,0 17.33169,-67.89019 z m -14.92194,43.42191 13.39267,0 -6.4878,-26.50729 z" />
    <path
       inkscape:connector-curvature="0"
       id="path3074"
       style="font-size:94.90723419px;font-style:normal;font-variant:normal;font-weight:normal;font-stretch:normal;text-align:center;line-height:125%;letter-spacing:0px;word-spacing:0px;text-anchor:middle;fill:#000000;fill-opacity:1;stroke:none;font-family:Caracteres L1;-inkscape-font-specification:Caracteres L1"
       d="m 250.48123,-417.98596 0,45.97069 c 0.58698,5.86993 3.89266,9.14472 9.91707,9.82438 5.93167,-0.64877 9.26825,-3.87722 10.00975,-9.68536 l 0,-46.10971 13.11462,0 0,49.53898 c -1.14314,6.05529 -4.00086,10.76666 -8.57317,14.13413 -4.07808,2.87317 -8.2488,4.38699 -12.51218,4.54146 -0.6797,0.0618 -1.34393,0.0927 -1.99268,0.0927 -6.33335,0 -11.56992,-1.8382 -15.70974,-5.51463 -4.72683,-4.57234 -7.22927,-9.23737 -7.50731,-13.99511 l 0,-48.79751 z" />
    <path
       inkscape:connector-curvature="0"
       id="path3076"
       style="font-size:94.90723419px;font-style:normal;font-variant:normal;font-weight:normal;font-stretch:normal;text-align:center;line-height:125%;letter-spacing:0px;word-spacing:0px;text-anchor:middle;fill:#000000;fill-opacity:1;stroke:none;font-family:Caracteres L1;-inkscape-font-specification:Caracteres L1"
       d="m 301.82753,-418.12499 13.7634,48.84386 11.81706,-48.84386 13.20731,0 -16.45121,67.93653 -17.19267,0 -18.21218,-67.93653 z" />
    <path
       inkscape:connector-curvature="0"
       id="path3078"
       style="font-size:94.90723419px;font-style:normal;font-variant:normal;font-weight:normal;font-stretch:normal;text-align:center;line-height:125%;letter-spacing:0px;word-spacing:0px;text-anchor:middle;fill:#000000;fill-opacity:1;stroke:none;font-family:Caracteres L1;-inkscape-font-specification:Caracteres L1"
       d="m 386.2616,-418.0323 0,12.4195 -28.0829,0 0,14.82925 20.57559,0 0,12.55853 -20.57559,0 0,15.52437 29.28778,0 0,12.55853 -42.35606,0 0.0463,-67.89018 z" />
    <path
       inkscape:connector-curvature="0"
       id="path3080"
       style="font-size:94.90723419px;font-style:normal;font-variant:normal;font-weight:normal;font-stretch:normal;text-align:center;line-height:125%;letter-spacing:0px;word-spacing:0px;text-anchor:middle;fill:#000000;fill-opacity:1;stroke:none;font-family:Caracteres L1;-inkscape-font-specification:Caracteres L1"
       d="m 392.37866,-363.99821 0,-0.0927 c 0,-0.33982 0.35528,-0.57153 1.06586,-0.69512 5.46828,-1.76096 9.02111,-3.02762 10.65852,-3.8 0.83413,1.14311 1.93088,2.17807 3.29024,3.10488 2.19348,1.29757 4.54144,2.08538 7.0439,2.36341 2.65688,0.0618 4.30972,1e-5 4.95853,-0.18536 3.0585,-0.86503 4.94305,-1.74552 5.65366,-2.64147 0.71053,-0.61786 1.32841,-2.11624 1.85365,-4.49511 0.12354,-0.92681 -3e-5,-1.96177 -0.37073,-3.10488 -0.46345,-0.77233 -0.95776,-1.42111 -1.48292,-1.94634 l -1.57561,-1.20488 -1.76098,-0.7878 c -9.79351,-3.0585 -15.18455,-4.85037 -16.17315,-5.3756 -4.54147,-1.82273 -7.92439,-4.83492 -10.14877,-9.03658 -1.45204,-2.81134 -2.10082,-6.22515 -1.94634,-10.24146 0.58698,-5.00481 2.64145,-8.97472 6.16341,-11.90974 3.95445,-2.8731 8.07883,-4.43326 12.37316,-4.68049 l 1.20487,0 c 3.05851,7e-5 5.59184,0.23178 7.6,0.69513 4.07801,1.14315 7.26011,2.7342 9.54633,4.77316 2.28613,1.88461 4.17068,4.44884 5.65365,7.69268 l -0.13902,0.50975 -9.54633,4.5878 -0.46342,-0.2317 c -0.58703,-1.8845 -2.23987,-3.41377 -4.95853,-4.5878 -3.05856,-1.14304 -6.6423,-1.17393 -10.75121,-0.0927 -1.76099,0.58705 -2.99676,1.34396 -3.70732,2.27073 -0.24717,0.24721 -0.57156,1.01957 -0.97317,2.31707 -0.0618,1.51387 -10e-6,2.39436 0.18537,2.64147 0.40161,1.05045 1.20486,1.99272 2.40975,2.82682 l 1.20488,0.50976 c 8.77395,2.59516 14.72109,4.47971 17.84145,5.65365 2.68776,1.23581 4.74223,2.59516 6.16341,4.07805 l 2.59512,3.52194 c 1.9154,3.18214 2.93491,6.65775 3.05853,10.42683 0.0309,0.24717 0.0463,0.54067 0.0463,0.88048 -5e-5,1.2049 -0.18541,2.82685 -0.55609,4.86585 -0.77241,2.87318 -1.69924,4.98944 -2.78049,6.34878 -1.8537,2.28618 -3.1976,3.66097 -4.0317,4.12438 -4.5415,3.12033 -9.22198,4.80406 -14.04145,5.05122 l -4.21707,0 c -3.15124,-0.30894 -5.80815,-0.92683 -7.97073,-1.85366 -3.46017,-1.6065 -6.2561,-3.39836 -8.3878,-5.3756 -1.76097,-1.6065 -3.29024,-3.90812 -4.5878,-6.90488 z" />
  </g>
</svg>
